<svg width="129" height="173" viewBox="0 0 129 173" fill="none" xmlns="http://www.w3.org/2000/svg">
<path d="M80.5176 128.977C67.4047 117.401 43.1476 110.397 26.3538 113.338C17.9726 114.801 13.0562 118.504 11.8679 123.19L10.4917 128.617C9.28134 133.39 11.7565 139.204 18.3453 144.919C31.4582 156.495 55.7153 163.499 72.5091 160.559C80.9218 159.081 85.8326 155.4 86.995 150.706L88.3712 145.279C89.5871 140.484 87.086 134.663 80.5176 128.977Z" fill="#EBEBEB"/>
<path opacity="0.2" d="M80.5176 128.977C67.4047 117.401 43.1476 110.397 26.3538 113.338C17.9726 114.801 13.0562 118.504 11.8679 123.19L10.4917 128.617C9.28134 133.39 11.7565 139.204 18.3453 144.919C31.4582 156.495 55.7153 163.499 72.5091 160.559C80.9218 159.081 85.8326 155.4 86.995 150.706L88.3712 145.279C89.5871 140.484 87.086 134.663 80.5176 128.977Z" fill="#252525"/>
<path opacity="0.2" d="M38.0726 112.417C34.4198 112.337 30.8168 112.59 27.3301 113.172C18.5569 114.621 13.4172 118.272 12.1838 122.886L10.7553 128.231C9.49892 132.931 12.1044 138.652 19.0173 144.272C21.7598 146.498 24.7603 148.498 27.9642 150.235L38.0726 112.417Z" fill="#252525"/>
<path d="M26.5382 113.357C43.2797 110.402 67.4716 117.416 80.5564 129.019C93.6412 140.622 90.6763 152.425 73.9348 155.38C57.1933 158.334 33.0014 151.32 19.9166 139.718C6.83181 128.115 9.82415 116.203 26.5382 113.357Z" fill="#EBEBEB"/>
<path opacity="0.4" d="M26.5382 113.357C43.2797 110.402 67.4716 117.416 80.5564 129.019C93.6412 140.622 90.6763 152.425 73.9348 155.38C57.1933 158.334 33.0014 151.32 19.9166 139.718C6.83181 128.115 9.82415 116.203 26.5382 113.357Z" fill="#252525"/>
<path d="M56.9618 108.636C20.3959 98.0542 12.2131 109.903 10.4835 116.757C8.75389 123.611 12.2645 130.716 21.2156 138.6C28.4455 144.403 36.9443 148.796 46.0252 151.423C55.106 154.051 64.5143 154.84 73.4896 153.727C84.936 151.722 91.285 147.47 93.0091 140.638C94.7332 133.806 93.5018 119.209 56.9618 108.636Z" fill="#EBEBEB"/>
<path opacity="0.1" d="M62.7212 140.435L62.0495 140.24C59.3838 139.819 54.2992 137.991 51.6888 139.228C47.2118 141.167 51.669 145.275 54.6422 147.123C59.7077 149.902 65.5309 151.109 71.0552 150.525C75.7699 150.155 80.0982 148.585 83.5245 146.002C84.8681 144.843 87.8014 141.213 85.5571 139.553C84.9375 139.124 84.201 138.862 83.4534 138.805C82.7058 138.748 81.9855 138.9 81.396 139.237C79.9617 139.739 78.4718 140.138 76.9395 140.431C75.5668 140.768 74.1537 141.009 72.7125 141.152C69.4159 141.316 66.0537 141.075 62.7212 140.435Z" fill="white"/>
<path opacity="0.1" d="M46.5505 131.112C67.7125 138.983 84.6976 136.122 91.9781 129.871C88.6071 123.093 79.4274 115.104 57.0225 108.63C20.4237 98.0536 12.2294 109.891 10.496 116.738C8.76272 123.586 12.2747 130.685 21.2323 138.563C28.4677 144.361 36.9735 148.751 46.0626 151.378C55.1516 154.004 64.5689 154.794 73.5534 153.682C76.0081 153.261 78.3979 152.668 80.701 151.91C71.7879 154.179 58.2719 153.877 42.3323 147.118C26.3927 140.358 24.395 122.884 46.5505 131.112Z" fill="#252525"/>
<path opacity="0.1" d="M36.1007 121.281L38.312 104.497C17.8603 102.872 12.3884 111.219 10.9951 116.464C9.20219 123.215 12.8453 130.212 22.1324 137.975L23.0652 138.692C12.9857 129.466 24.5643 115.046 36.1007 121.281Z" fill="#252525"/>
<path d="M83.9618 103.4C72.9056 93.6674 52.465 87.7738 38.3335 90.244C31.2548 91.4753 27.0971 94.5773 26.104 98.5917L24.5811 104.58C23.5621 108.587 25.63 113.484 31.1581 118.351C42.2088 128.105 62.6494 133.999 76.7864 131.507C83.8911 130.283 88.0229 127.173 89.0159 123.159L90.5388 117.17C91.5837 113.171 89.464 108.259 83.9618 103.4Z" fill="#EBEBEB"/>
<path opacity="0.2" d="M83.9618 103.4C72.9056 93.6674 52.465 87.7738 38.3335 90.244C31.2548 91.4753 27.0971 94.5773 26.104 98.5917L24.5811 104.58C23.5621 108.587 25.63 113.484 31.1581 118.351C42.2088 128.105 62.6494 133.999 76.7864 131.507C83.8911 130.283 88.0229 127.173 89.0159 123.159L90.5388 117.17C91.5837 113.171 89.464 108.259 83.9618 103.4Z" fill="#252525"/>
<path opacity="0.2" d="M31.7752 117.785C33.8393 119.45 36.0814 120.961 38.4674 122.294L47.2393 89.5613C44.5176 89.5114 41.8314 89.692 39.2235 90.1C31.7853 91.3225 27.4245 94.3828 26.3942 98.337L24.8134 104.236C23.6738 108.161 25.958 112.959 31.7752 117.785Z" fill="#252525"/>
<path d="M38.5404 90.2656C52.6133 87.7799 72.9802 93.6848 84.0041 103.447C95.028 113.209 92.5039 123.147 78.4255 125.654C64.3471 128.162 43.9857 122.235 32.9618 112.473C21.9379 102.711 24.4417 92.7438 38.5404 90.2656Z" fill="#F5F5F5"/>
<path d="M89.529 109.069C87.5967 100.537 81.9362 81.8813 87.1967 61.8425L58.1185 53.6847C52.824 73.8528 38.851 86.8618 32.985 93.2059C29.3318 97.3918 30.4766 103.41 36.9931 109.291C42.5825 113.892 49.2933 117.364 56.5086 119.388C63.7239 121.412 71.212 121.924 78.2842 120.875C86.6977 119.206 90.6341 114.59 89.529 109.069Z" fill="#EBEBEB"/>
<path opacity="0.1" d="M85.2999 63.1623C83.6261 74.9974 83.3701 87.0646 84.5351 99.2112C85.4113 107.062 87.9435 112.914 81.5344 116.021C75.1252 119.129 62.0811 117.203 62.0811 117.203C67.1646 116.904 72.0044 115.822 76.3337 114.014C82.8087 111.107 81.3173 104.082 81.156 98.3614C80.9957 89.0924 81.1813 74.7837 85.2999 63.1623Z" fill="white"/>
<path opacity="0.1" d="M61.2349 119.892C58.9187 118.302 54.0498 115.24 62.7252 98.6222C71.4007 82.0041 72.605 77.1754 77.4664 58.6777L58.6669 53.6088C53.3163 73.608 38.9817 86.6297 32.9746 92.9472C29.2343 97.1151 30.4338 103.098 37.1557 108.937C43.8969 114.404 52.3078 118.231 61.2349 119.892Z" fill="#252525"/>
<path opacity="0.1" d="M52.2965 85.6861C59.1206 74.8326 60.5482 73.7819 65.6919 55.1662L59.4281 53.5468C53.9968 73.5538 39.3015 86.4943 33.1403 92.8018C29.3053 96.9628 30.5728 102.924 37.5335 108.731C39.3942 110.262 41.4363 111.65 43.6243 112.87C34.9868 104.935 45.1925 97.0168 52.2965 85.6861Z" fill="#252525"/>
<path d="M90.6128 53.9749C86.5993 50.7569 81.8738 48.321 76.8216 46.8657C71.7695 45.4104 66.5338 44.977 61.5415 45.6008C59.7298 45.7443 58.0535 46.3111 56.6849 47.2431C55.3163 48.1751 54.3049 49.4387 53.7545 50.9038L52.6067 55.4092C52.3809 56.972 52.6511 58.6095 53.3893 60.1528C54.1275 61.6961 55.307 63.0892 56.8061 64.1882C60.8258 67.3971 65.5514 69.827 70.6013 71.2817C75.6512 72.7363 80.8841 73.175 85.8774 72.5623C87.6932 72.4181 89.3727 71.8486 90.7426 70.9125C92.1125 69.9765 93.123 68.7078 93.6699 67.2376L94.8178 62.7322C95.0382 61.172 94.7648 59.5384 94.0258 57.9993C93.2868 56.4602 92.1088 55.0711 90.6128 53.9749Z" fill="#E0E0E0"/>
<path opacity="0.2" d="M75.0538 46.1994C70.6454 45.1717 66.1347 44.956 61.8508 45.5681C59.989 45.7103 58.2666 46.2711 56.8604 47.1929C55.4543 48.1147 54.4153 49.3643 53.8501 50.8132L52.6717 55.2685C52.44 56.8138 52.718 58.4331 53.477 59.9591C54.236 61.485 55.4484 62.8624 56.9892 63.9489C60.3953 66.6768 64.3966 68.8107 68.7064 70.1977L75.0538 46.1994Z" fill="#252525"/>
<path d="M61.6971 45.6167C66.6655 44.9876 71.8775 45.42 76.9082 46.8785C81.939 48.3371 86.6459 50.7805 90.6451 54.0096C97.6543 60.2157 96.0619 66.5545 87.098 68.1296C82.1296 68.7587 76.9175 68.3263 71.8868 66.8678C66.8561 65.4092 62.1492 62.9658 58.15 59.7367C51.1298 53.5743 52.7332 47.1918 61.6971 45.6167Z" fill="#F5F5F5"/>
<path d="M78.2571 42.2453C58.8999 36.644 54.6159 42.9459 53.7015 46.5692C52.7871 50.1925 54.6368 53.8662 59.3569 58.1596C63.1963 61.2273 67.7024 63.5504 72.515 64.943C77.3276 66.3356 82.3131 66.7591 87.0729 66.1798C93.1222 65.0963 96.4961 62.8405 97.4106 59.2172C98.325 55.5939 97.6144 47.8467 78.2571 42.2453Z" fill="#EBEBEB"/>
<path opacity="0.1" d="M81.2992 59.1062L80.9633 59.0087C79.4783 58.7421 76.8559 57.8169 75.5556 58.4719C73.1866 59.5207 75.5536 61.6857 77.2726 62.6772C79.9571 64.147 83.0417 64.7841 85.9673 64.4728C88.4707 64.2836 90.7685 63.4506 92.5818 62.0751C93.2903 61.4595 94.8257 59.5353 93.6398 58.6281C93.3088 58.4023 92.9167 58.2663 92.52 58.2398C92.1232 58.2132 91.7424 58.2974 91.4322 58.4802C90.6783 58.739 89.8951 58.9433 89.0899 59.091C88.3694 59.2796 87.623 59.4085 86.8596 59.4762C85.0289 59.5956 83.1548 59.4709 81.2992 59.1062Z" fill="white"/>
<path opacity="0.1" d="M72.742 54.1652C83.9442 58.3382 92.9457 56.8206 96.8125 53.515C94.951 49.8881 90.1535 45.6702 78.2901 42.2422C58.9149 36.6436 54.6247 42.9392 53.7083 46.5591C52.7918 50.1789 54.6423 53.8495 59.3659 58.1396C63.2083 61.2049 67.7183 63.5264 72.5353 64.9183C77.3524 66.3102 82.3428 66.734 87.1076 66.1558C88.4023 65.9286 89.6627 65.6121 90.8776 65.2091C84.2865 66.5941 77.0321 65.6845 70.563 62.6621C62.1451 59.1298 61.0272 49.8206 72.742 54.1652Z" fill="#252525"/>
<path opacity="0.1" d="M67.209 48.9624L68.3923 40.061C57.5304 39.201 54.6615 43.6031 53.9192 46.3979C52.9713 49.9665 54.891 53.5843 59.7885 57.8121L60.2952 58.1818C54.9978 53.2907 61.0903 45.6449 67.209 48.9624Z" fill="#252525"/>
<path d="M95.7624 37.4567C91.7426 34.2478 87.0171 31.8179 81.9671 30.3633C76.9172 28.9087 71.6844 28.4699 66.6911 29.0826C62.1947 29.8901 59.5528 31.8391 58.9041 34.3856L57.7507 38.9127C57.5247 40.4727 57.7955 42.1077 58.5349 43.6478C59.2744 45.1878 60.4555 46.5767 61.9556 47.67C65.9692 50.888 70.6947 53.324 75.7468 54.7793C80.799 56.2346 86.0347 56.668 91.027 56.0441C92.841 55.9054 94.5199 55.3403 95.8893 54.4078C97.2587 53.4752 98.2686 52.2091 98.8139 50.7411L99.9673 46.214C100.168 44.6532 99.8864 43.0242 99.1489 41.4882C98.4114 39.9523 97.244 38.5626 95.7624 37.4567Z" fill="#E0E0E0"/>
<path opacity="0.2" d="M80.2032 29.681C75.7982 28.654 71.2915 28.4311 67.0059 29.0282C62.3856 29.8274 59.6712 31.7551 59.0052 34.2733L57.8211 38.7501C57.5892 40.2928 57.8678 41.9095 58.6281 43.4322C59.3884 44.9549 60.6025 46.3281 62.1443 47.4091C65.5417 50.149 69.5428 52.2912 73.8558 53.6794L80.2032 29.681Z" fill="#252525"/>
<path d="M66.8465 29.0985C71.8159 28.4806 77.0251 28.9183 82.0536 30.3762C87.082 31.8341 91.7889 34.2714 95.7943 37.4914C102.798 43.7195 101.211 50.0364 92.2418 51.6334C87.2724 52.2513 82.0632 51.8137 77.0347 50.3557C72.0063 48.8978 67.2994 46.4605 63.2941 43.2405C56.2904 37.0124 57.8772 30.6955 66.8465 29.0985Z" fill="#F5F5F5"/>
<path d="M102.432 35.9988C101.598 39.2133 99.628 42.0277 96.7724 44.0861C93.9168 46.1445 90.3035 47.3544 86.3894 47.5629C82.4753 47.7714 78.4363 46.969 74.783 45.2573C71.1296 43.5456 68.0262 41.0014 65.8651 37.9464C63.7039 34.8915 62.5822 31.463 62.6417 28.0945C62.7012 24.726 63.9392 21.5688 66.1992 19.0222C68.4593 16.4756 71.6398 14.6538 75.3386 13.7874C79.0374 12.921 83.0884 13.0488 86.9793 14.1547C92.1968 15.6376 96.756 18.7721 99.654 22.8686C102.552 26.9652 103.551 31.6882 102.432 35.9988Z" fill="#EBEBEB"/>
<path opacity="0.2" d="M102.427 35.9975C101.614 39.1342 99.72 41.8918 96.9735 43.9379C94.2269 45.984 90.7452 47.2312 86.9484 47.5289C83.1515 47.8267 79.2017 47.1623 75.5754 45.616C71.949 44.0697 68.801 41.7075 66.5109 38.8142C64.2209 35.921 62.8867 32.6204 62.6693 29.3104C62.4519 26.0004 63.3606 22.8226 65.2857 20.16C67.2108 17.4975 70.0701 15.464 73.5188 14.305C76.9674 13.1459 80.8582 12.9107 84.7216 13.6278C81.9152 13.7538 79.2809 14.5017 77.0709 15.7998C74.861 17.098 73.1494 18.903 72.1003 21.0418C71.0511 23.1807 70.6994 25.5817 71.0789 28.0151C71.4584 30.4484 72.5564 32.8325 74.2677 34.939C75.979 37.0455 78.2462 38.8038 80.8523 40.0455C83.4584 41.2873 86.316 41.9708 89.1514 42.0307C91.9868 42.0906 94.705 41.5248 97.0456 40.3876C99.3863 39.2503 101.271 37.5796 102.519 35.5356C102.502 35.6926 102.471 35.847 102.427 35.9975Z" fill="#252525"/>
<path opacity="0.2" d="M92.0318 18.8908C90.7303 18.2362 89.3096 17.8276 87.8748 17.695C86.8894 17.5424 85.9166 17.703 85.1404 18.1465C84.3643 18.59 83.8384 19.2856 83.6622 20.1019C83.2626 22.3216 85.8277 23.8532 87.6894 24.9724L90.9172 26.858C92.3501 27.6904 93.4752 28.8545 94.9192 29.6434C96.3632 30.4323 97.7006 29.673 98.0117 28.4551C98.3281 27.472 98.332 26.4032 98.023 25.3534C97.6552 24.1772 96.9866 23.058 96.0693 22.0832C95.0168 20.772 93.628 19.6739 92.0318 18.8908Z" fill="white"/>
</svg>
