<svg width="115" height="115" viewBox="0 0 115 115" fill="none" xmlns="http://www.w3.org/2000/svg">
<path d="M42.0291 26.9673C41.3871 25.2037 41.0361 23.3 41.0361 21.3168C41.0361 12.1902 48.4346 4.79169 57.5612 4.79169C66.6878 4.79169 74.0863 12.1902 74.0863 21.3168C74.0863 23.9902 73.4474 26.5244 72.3148 28.7652C73.9446 28.8779 75.5283 29.6123 76.6829 30.9318C82.9562 38.1013 88.446 48.3236 88.446 60.1723C88.446 68.6432 85.5297 74.9203 81.5889 79.4431L89.0735 80.7558C92.1296 81.2918 94.3587 83.9459 94.3587 87.0486V99.0278C94.3587 100.722 93.6856 102.347 92.4875 103.545C91.2893 104.744 89.6643 105.417 87.9699 105.417L27.1526 105.417C23.6241 105.417 20.7637 102.556 20.7637 99.0278V87.0486C20.7637 83.9495 22.9879 81.2973 26.0396 80.7574L32.7912 79.563C28.7967 75.0317 25.8318 68.7195 25.8318 60.1723C25.8318 50.928 29.4142 42.8773 33.6159 36.7075C36.2569 32.8294 39.2469 29.537 42.0291 26.9673Z" fill="#F4F7FA"/>
<path d="M60.6945 59.3276H54.3056C54.3056 47.5963 57.8638 35.8846 65.7355 27.3119C66.969 25.6329 67.6977 23.5599 67.6977 21.3168C67.6977 15.7187 63.1596 11.1805 57.5615 11.1805C51.9634 11.1805 47.4253 15.7187 47.4253 21.3168C47.4253 24.0787 48.53 26.5826 50.3215 28.4108C43.9898 32.9247 32.2209 45.0239 32.2209 60.1723C32.2209 75.4597 44.2067 81.6487 50.4944 82.9193L27.1528 87.0486V99.0278L87.9701 99.0278V87.0486L64.0751 82.8578C70.4339 81.4581 82.0573 75.2268 82.0573 60.1723C82.0573 50.3149 77.4653 41.5278 71.875 35.1389C65.7355 39.9305 60.6945 51.1111 60.6945 59.3276Z" fill="#1D1E4A"/>
</svg>
