<svg width="115" height="115" viewBox="0 0 115 115" fill="none" xmlns="http://www.w3.org/2000/svg">
<path d="M28.7499 15.9722C28.7499 17.5492 29.0036 19.0665 29.4724 20.4857L26.3188 21.9651C23.7044 19.2551 20.0351 17.5695 15.9722 17.5695C8.03307 17.5695 1.59717 24.0054 1.59717 31.9445C1.59717 39.0214 6.71115 44.9039 13.4452 46.0981L21.0194 72.0667C21.1775 72.6088 21.4068 73.1275 21.7012 73.6093L26.0666 80.7527L26.0398 80.7574C22.988 81.2973 20.7638 83.9495 20.7638 87.0486V99.0278C20.7638 102.556 23.6242 105.417 27.1527 105.417L87.97 105.417C89.6645 105.417 91.2895 104.744 92.4876 103.545C93.6858 102.347 94.3589 100.722 94.3589 99.0278V87.0486C94.3589 83.9459 92.1297 81.2917 89.0737 80.7558L88.9452 80.7332L93.2987 73.6093C93.5931 73.1275 93.8224 72.6088 93.9805 72.0667L101.555 46.0981C108.289 44.9039 113.403 39.0214 113.403 31.9445C113.403 24.0054 106.967 17.5695 99.0277 17.5695C94.9597 17.5695 91.2863 19.2593 88.6712 21.9753L85.5232 20.4986C85.9947 19.0757 86.2499 17.554 86.2499 15.9722C86.2499 8.03313 79.814 1.59723 71.8749 1.59723C63.9359 1.59723 57.4999 8.03313 57.4999 15.9722C57.4999 8.03313 51.064 1.59723 43.1249 1.59723C35.1859 1.59723 28.7499 8.03313 28.7499 15.9722Z" fill="#F4F7FA"/>
<path d="M45.9919 23.4284C48.9863 22.2764 51.1113 19.3724 51.1113 15.9722C51.1113 11.5616 47.5358 7.98608 43.1252 7.98608C38.7146 7.98608 35.1391 11.5616 35.1391 15.9722C35.1391 20.0481 38.1925 23.4108 42.1366 23.8977L38.5752 52.7083L21.4065 37.7967C22.9763 36.3384 23.9585 34.2561 23.9585 31.9444C23.9585 27.5338 20.383 23.9583 15.9724 23.9583C11.5618 23.9583 7.98633 27.5338 7.98633 31.9444C7.98633 36.355 11.5618 39.9305 15.9724 39.9305C16.7489 39.9305 17.4994 39.8197 18.2091 39.6131L27.153 70.2778L36.4019 85.4124L27.153 87.0486V99.0277L87.9703 99.0278V87.0486L78.6026 85.4056L87.8474 70.2778L96.7913 39.6131C97.501 39.8197 98.2516 39.9305 99.028 39.9305C103.439 39.9305 107.014 36.355 107.014 31.9444C107.014 27.5338 103.439 23.9583 99.028 23.9583C94.6174 23.9583 91.0419 27.5338 91.0419 31.9444C91.0419 34.2561 92.0241 36.3384 93.5939 37.7967L76.4253 52.7083L72.8638 23.8977C76.8079 23.4108 79.8613 20.0481 79.8613 15.9722C79.8613 11.5616 76.2858 7.98608 71.8752 7.98608C67.4646 7.98608 63.8891 11.5616 63.8891 15.9722C63.8891 19.3724 66.0141 22.2764 69.0085 23.4284L57.5002 49.5139L45.9919 23.4284Z" fill="#1D1E4A"/>
</svg>
