<svg width="115" height="115" viewBox="0 0 115 115" fill="none" xmlns="http://www.w3.org/2000/svg">
<path d="M41.5276 7.98611C42.6913 7.98611 43.7823 8.29724 44.7221 8.84084C45.6618 8.29724 46.7528 7.98611 47.9165 7.98611H65.486C66.6497 7.98611 67.7407 8.29724 68.6804 8.84084C69.6201 8.29724 70.7112 7.98611 71.8748 7.98611H87.8471C91.3755 7.98611 94.2359 10.8465 94.2359 14.375V28.75C94.2359 30.761 93.2891 32.6545 91.6804 33.8611L81.8221 41.2548L84.6135 66.3778C85.3526 73.0291 88.4484 76.4036 92.9582 82.4167C93.7876 83.5226 94.236 84.8676 94.236 86.25V99.0278C94.236 102.556 91.3755 105.417 87.8471 105.417H25.5554C22.0269 105.417 19.1665 102.556 19.1665 99.0278V86.25C19.1665 84.8676 19.6149 83.5226 20.4443 82.4167C24.9541 76.4036 28.0499 73.0291 28.7889 66.3778L31.5804 41.2548L21.7221 33.8611C20.1133 32.6545 19.1665 30.761 19.1665 28.75V14.375C19.1665 10.8465 22.0269 7.98611 25.5554 7.98611H41.5276Z" fill="#F4F7FA"/>
<path d="M25.5557 14.375H41.5279V23.9583H47.9168V14.375H65.4862V23.9583H71.8751V14.375H87.8473V28.75L75.0696 38.3333L78.264 67.0833H35.139L38.3334 38.3333L25.5557 28.75V14.375Z" fill="#1D1E4A"/>
<path d="M35.139 73.4722H78.264L87.8473 86.25V99.0278H25.5557V86.25L35.139 73.4722Z" fill="#1D1E4A"/>
</svg>
