<svg width="115" height="115" viewBox="0 0 115 115" fill="none" xmlns="http://www.w3.org/2000/svg">
<path d="M36.9076 65.6889C36.1454 66.7295 35.2359 67.8131 34.1757 68.9278C30.4341 72.8618 25.8454 76.0985 22.8838 77.7908L22.3856 78.0755C20.395 79.213 19.1665 81.33 19.1665 83.6226V99.0278C19.1665 102.556 22.0269 105.417 25.5554 105.417H87.8471C91.3755 105.417 94.236 102.556 94.236 99.0278V83.6226C94.236 81.33 93.0075 79.2131 91.0169 78.0755L90.5187 77.7909C87.5571 76.0985 82.9683 72.8618 79.2268 68.9278C78.1665 67.8131 77.2571 66.7295 76.4948 65.6889C79.2988 65.0135 81.3821 62.4888 81.3821 59.4775V49.0776C81.3821 47.0017 80.3735 45.0552 78.6776 43.8581L75.9641 41.9427C77.5298 38.9006 78.4158 35.4484 78.4158 31.7923C78.4158 19.5266 68.4725 9.58334 56.2069 9.58334C43.9412 9.58334 33.9979 19.5266 33.9979 31.7923C33.9979 35.654 34.9861 39.2873 36.7192 42.4503L34.7249 43.8581C33.0289 45.0552 32.0203 47.0017 32.0203 49.0776V59.4775C32.0203 62.4888 34.1037 65.0135 36.9076 65.6889Z" fill="#F4F7FA"/>
<path d="M72.0272 31.7923C72.0272 36.3806 70.0739 40.5127 66.9535 43.4024L74.9935 49.0776V59.4775H67.1227C67.5022 64.2982 70.5953 69.1226 74.5976 73.3308C78.8451 77.7968 83.9554 81.3987 87.3491 83.338L87.8473 83.6226V99.0278H25.5557V83.6226L26.0539 83.338C29.4476 81.3987 34.5579 77.7968 38.8054 73.3308C42.8077 69.1226 45.9008 64.2982 46.2803 59.4775H38.4095V49.0776L45.8974 43.7921C42.5236 40.8908 40.387 36.5911 40.387 31.7923C40.387 23.0551 47.4699 15.9722 56.2071 15.9722C64.9443 15.9722 72.0272 23.0551 72.0272 31.7923Z" fill="#1D1E4A"/>
</svg>
