<svg width="115" height="115" viewBox="0 0 115 115" fill="none" xmlns="http://www.w3.org/2000/svg">
<path d="M47.4212 0.80973C49.5242 0.573254 51.6079 1.3935 52.9853 3.00011L66.0202 18.2032C80.9892 21.9024 89.6624 33.174 94.4593 47.2453C99.4022 61.7445 100.625 80.1517 100.625 99.0277C100.625 102.556 97.7645 105.417 94.236 105.417H34.6675C31.2757 105.417 28.4751 102.766 28.2883 99.3796C28.1216 96.3573 28.8169 91.1134 30.9358 85.7571L30.9748 85.6591C24.9576 88.8889 18.2798 88.1152 13.3225 84.5857C7.29803 80.2964 3.94825 71.8996 7.77542 63.6074C10.5352 57.6278 13.5097 54.4614 15.7599 52.0666C17.8617 49.8297 18.7376 48.8458 19.3573 46.3671C23.1144 31.3389 30.8437 22.6816 39.1444 18.7307C39.0243 17.0187 39.122 15.3692 39.332 13.8717C39.8547 10.1441 41.156 6.69935 42.4824 4.18112C43.4687 2.30872 45.3182 1.04621 47.4212 0.80973Z" fill="#F4F7FA"/>
<path fill-rule="evenodd" clip-rule="evenodd" d="M62.5645 23.9878L48.1354 7.15857C46.0468 11.1238 44.0219 18.1222 46.9331 23.1743C45.5201 23.3001 44.1697 23.5391 43.1252 23.9583C36.4614 26.6325 29.1495 33.5416 25.5558 47.9166C24.5152 52.0791 22.6422 54.0724 20.4162 56.4414C18.3165 58.6761 15.9025 61.2452 13.5766 66.2847C8.78494 76.6666 21.7166 87.0486 31.1461 77.6191C36.4474 72.3177 41.0814 70.1292 44.9719 68.2917C50.5715 65.6471 54.6311 63.7299 56.9242 54.3055C58.0152 58.7015 57.5788 69.0761 47.1052 75.4064C36.6316 81.7367 34.4496 95.0713 34.6678 99.0277H94.2363C94.2363 61.4662 89.2633 29.0132 62.5645 23.9878Z" fill="#1D1E4A"/>
<ellipse cx="44.7223" cy="43.125" rx="4.79167" ry="4.79167" fill="#F4F7FA"/>
</svg>
