<svg width="263" height="359" viewBox="0 0 375 464" fill="none" xmlns="http://www.w3.org/2000/svg">
<path d="M131.612 303.707C112.775 299.72 85.8977 307.471 71.5725 321.021C64.3837 327.804 61.7476 334.723 63.2464 340.475L64.9531 347.151C66.4257 352.911 71.9745 357.496 81.4061 359.486C100.217 363.48 127.094 355.73 141.419 342.179C148.608 335.396 151.264 328.446 149.765 322.693C149.488 321.609 148.373 317.247 148.089 316.138C146.586 310.258 141.017 305.705 131.612 303.707Z" fill="#EAE8E8"/>
<path opacity="0.2" d="M131.612 303.707C112.775 299.72 85.8977 307.471 71.5725 321.021C64.3837 327.804 61.7476 334.723 63.2464 340.475L64.9531 347.151C66.4257 352.911 71.9745 357.496 81.4061 359.486C100.217 363.48 127.094 355.73 141.419 342.179C148.608 335.396 151.264 328.446 149.765 322.693C149.488 321.609 148.373 317.247 148.089 316.138C146.586 310.258 141.017 305.705 131.612 303.707Z" fill="#252525"/>
<path opacity="0.2" d="M82.2579 314.921C78.7094 316.91 75.4032 319.235 72.4047 321.848C64.8259 328.522 62.0301 335.336 63.5832 341.007L65.3256 347.494C66.851 353.173 72.6637 357.699 82.5657 359.675C86.4701 360.434 90.4959 360.788 94.5635 360.731L82.2579 314.921Z" fill="#252525"/>
<path d="M71.5252 321.072C85.8141 307.49 112.609 299.727 131.381 303.731C150.153 307.735 153.738 322.001 139.449 335.583C125.161 349.166 98.3395 356.936 79.5938 352.924C60.8481 348.913 57.21 334.662 71.5252 321.072Z" fill="#EAE8E8"/>
<path opacity="0.4" d="M71.5252 321.072C85.8141 307.49 112.609 299.727 131.381 303.731C150.153 307.735 153.738 322.001 139.449 335.583C125.161 349.166 98.3395 356.936 79.5938 352.924C60.8481 348.913 57.21 334.662 71.5252 321.072Z" fill="#252525"/>
<path d="M97.4072 297.347C56.8981 309.058 55.7186 326.579 57.8248 334.857C59.9309 343.136 67.1356 348.412 79.9474 351.133C89.9917 352.709 100.468 352.014 110.533 349.104C120.597 346.194 129.967 341.151 137.889 334.381C147.628 325.14 151.372 316.699 149.265 308.42C147.159 300.141 137.785 285.673 97.4072 297.347Z" fill="#EAE8E8"/>
<path opacity="0.1" d="M120.791 326.037L120.031 326.258C117.115 327.518 111.488 328.735 109.619 331.69C106.428 336.533 112.91 338.028 116.711 338.042C123.042 337.806 129.242 335.428 134.173 331.345C138.443 327.996 141.702 323.639 143.569 318.785C144.229 316.725 145.022 311.072 141.97 310.685C141.147 310.614 140.301 310.798 139.558 311.21C138.816 311.621 138.217 312.239 137.851 312.969C136.752 314.385 135.55 315.73 134.256 316.996C133.137 318.208 131.93 319.347 130.646 320.404C127.619 322.682 124.303 324.578 120.791 326.037Z" fill="white"/>
<path opacity="0.1" d="M99.7143 327.585C124.16 322.651 138.692 309.058 142.206 297.946C135.276 292.904 122.161 290.269 97.3266 297.439C56.777 309.145 55.6005 326.65 57.711 334.921C59.8214 343.192 67.0351 348.463 79.8613 351.181C89.9169 352.754 100.405 352.059 110.479 349.15C120.553 346.242 129.933 341.202 137.861 334.438C139.956 332.474 141.89 330.365 143.645 328.134C136.494 336.049 123.442 344.167 104.582 346.996C85.7229 349.826 74.2518 332.735 99.7143 327.585Z" fill="#252525"/>
<path opacity="0.1" d="M84.6935 325.553L77.1371 306.578C56.6715 316.996 56.2919 328.972 57.9943 335.349C60.173 343.512 67.6599 348.717 80.9836 351.409C81.3896 351.502 81.8439 351.557 82.2709 351.619C67.3703 347.852 70.1243 325.882 84.6935 325.553Z" fill="#252525"/>
<path d="M121.334 267.838C102.002 263.759 74.4181 271.704 59.7166 285.584C52.3426 292.544 49.637 299.634 51.1489 305.534C51.4389 306.666 53.1236 313.241 53.4075 314.349C54.9193 320.25 60.6425 324.938 70.2981 326.993C89.6295 331.072 117.214 323.127 131.942 309.239C139.289 302.287 142.015 295.165 140.477 289.272L138.218 280.458C136.706 274.557 130.989 269.893 121.334 267.838Z" fill="#EAE8E8"/>
<path opacity="0.2" d="M121.334 267.838C102.002 263.759 74.4181 271.704 59.7166 285.584C52.3426 292.544 49.637 299.634 51.1489 305.534C51.4389 306.666 53.1236 313.241 53.4075 314.349C54.9193 320.25 60.6425 324.938 70.2981 326.993C89.6295 331.072 117.214 323.127 131.942 309.239C139.289 302.287 142.015 295.165 140.477 289.272L138.218 280.458C136.706 274.557 130.989 269.893 121.334 267.838Z" fill="#252525"/>
<path opacity="0.2" d="M71.5827 327.194C75.1615 327.878 78.8419 328.227 82.5635 328.235L69.5747 280.004C66.3691 281.866 63.3674 283.998 60.6171 286.365C52.8032 293.209 49.9143 300.191 51.4811 306.009C51.7817 307.125 53.5276 313.608 53.8218 314.7C55.3608 320.526 61.3491 325.164 71.5827 327.194Z" fill="#252525"/>
<path d="M59.653 285.65C74.3063 271.728 101.783 263.768 121.029 267.868C140.275 271.968 143.959 286.621 129.306 300.542C114.653 314.464 87.1499 322.432 67.9035 318.332C48.6571 314.232 44.9735 299.579 59.653 285.65Z" fill="#F5F5F5"/>
<path d="M124.977 242.423C115.457 278.283 129.175 281.328 130.246 281.519C131.576 286.521 129.112 292.595 122.578 298.486C119.431 301.279 115.913 303.71 112.117 305.716C111.196 306.199 110.222 306.698 109.261 307.142C102.341 310.395 94.9495 312.631 87.3895 313.758L86.2048 313.905C80.0379 314.793 73.8261 314.677 67.8731 313.563C64.1234 312.885 60.6406 311.483 57.6589 309.45C55.3411 307.77 53.7083 305.454 52.9803 302.814C50.6491 294.048 56.6527 276.849 55.2256 269.291L55.0899 269.328C52.0755 269.473 49.0752 270.118 46.2421 271.23L46.0249 271.29C46.0249 271.29 31.3782 268.04 30.713 267.84C27.8588 267.297 27.3403 261.841 28.9285 252.583C30.8896 241.33 28.7449 228.115 27.5622 219.723C26.3794 211.331 29.3025 201.066 31.5586 193.771C33.8147 186.477 31.2709 181.732 31.9705 175.378C32.67 169.023 37.2391 171.522 41.7937 174.076L46.3484 176.631C46.3484 176.631 62.3056 167.605 75.4338 170.404C77.3242 170.829 90.5819 173.567 96.3972 174.725L96.5601 174.68L97.9926 175.027C98.3559 175.117 98.7085 175.234 99.0469 175.376L100.114 175.772C100.374 175.842 100.618 175.947 100.838 176.084C101.3 176.288 101.769 176.517 102.211 176.753C115.856 184.676 130.389 202.07 124.977 242.423Z" fill="#D1CCCC"/>
<path d="M124.977 242.423C115.457 278.283 129.175 281.328 130.246 281.519C131.576 286.521 129.112 292.595 122.578 298.486C119.431 301.279 115.913 303.71 112.117 305.716C111.196 306.199 110.222 306.698 109.261 307.142C102.341 310.395 94.9495 312.631 87.3895 313.758L86.2048 313.905C80.0379 314.793 73.8261 314.677 67.8731 313.563C64.1234 312.885 60.6406 311.483 57.6589 309.45C55.3411 307.77 53.7083 305.454 52.9803 302.814C50.6491 294.048 56.6527 276.849 55.2256 269.291L55.0899 269.328C52.0755 269.473 49.0752 270.118 46.2421 271.23L46.0249 271.29C46.0249 271.29 31.3782 268.04 30.713 267.84C27.8588 267.297 27.3403 261.841 28.9285 252.583C30.8896 241.33 28.7449 228.115 27.5622 219.723C26.3794 211.331 29.3025 201.066 31.5586 193.771C33.8147 186.477 31.2709 181.732 31.9705 175.378C32.67 169.023 37.2391 171.522 41.7937 174.076L46.3484 176.631C46.3484 176.631 62.3056 167.605 75.4338 170.404C77.3242 170.829 90.5819 173.567 96.3972 174.725L96.5601 174.68L97.9926 175.027C98.3559 175.117 98.7085 175.234 99.0469 175.376L100.114 175.772C100.374 175.842 100.618 175.947 100.838 176.084C101.3 176.288 101.769 176.517 102.211 176.753C115.856 184.676 130.389 202.07 124.977 242.423Z" fill="#EAE8E8"/>
<path opacity="0.2" d="M82.948 221.19C91.4262 228.381 90.0185 236.565 82.7563 265.303C79.7466 276.98 75.51 295.312 88.443 313.843C82.1943 314.716 75.9037 314.596 69.8739 313.488C66.0655 312.801 62.534 311.382 59.5224 309.328C57.1735 307.664 55.5245 305.357 54.8025 302.726C52.452 293.953 58.5398 276.803 57.1091 269.26C58.4729 269.038 59.7875 268.557 60.96 267.852C62.1326 267.147 63.1346 266.235 63.8953 265.18C66.3712 261.093 69.3737 248.398 69.3737 248.398C77.6291 240.974 82.501 231.209 82.948 221.19Z" fill="#252525"/>
<path d="M124.917 242.242C120.261 277.006 129.403 281.015 130.184 281.311C131.517 286.31 129.039 292.379 122.476 298.265C119.315 301.054 115.782 303.483 111.969 305.486C111.045 305.97 110.066 306.468 109.102 306.911C102.157 310.172 94.7319 312.405 87.1387 313.517L85.9556 313.688C73.1373 295.233 77.2857 276.778 80.2589 265.107C87.5051 236.326 88.7946 228.105 80.3882 220.932C79.9511 231.008 75.1024 240.828 66.8818 248.287C66.8818 248.287 63.9044 260.929 61.4751 265.095C60.7242 266.158 59.7279 267.075 58.5593 267.78C57.3907 268.485 56.0794 268.959 54.7213 269.168C52.6701 269.633 50.6488 270.229 48.6737 270.953C47.985 271.277 47.2105 271.39 46.4775 271.274C46.2452 271.251 46.0261 271.179 45.8371 271.066C43.4719 269.875 43.2024 264.585 44.7555 256.036C46.6701 244.783 49.7554 232.545 48.5873 224.104C47.4193 215.662 50.2908 205.475 52.5873 198.179C54.8839 190.883 52.3054 186.149 52.9841 179.807C53.6629 173.465 58.3369 175.964 62.8746 178.501L67.4397 181.031C67.4397 181.031 83.1011 172.294 96.1576 174.744L96.3212 174.7L96.4848 174.655L97.9229 175.001C98.2876 175.092 98.6415 175.208 98.9811 175.35L100.052 175.746C100.313 175.816 100.558 175.921 100.779 176.058C101.243 176.263 101.713 176.492 102.157 176.728C115.793 184.536 130.374 201.921 124.917 242.242Z" fill="#F5F5F5"/>
<path d="M59.2485 190.065C63.0034 188.152 64.6198 186.054 61.5114 183.455C59.435 181.73 57.0078 180.361 54.3379 179.408C54.3379 179.408 59.5332 183.099 60.1448 186.045C60.7564 188.992 59.2485 190.065 59.2485 190.065Z" fill="#D1CCCC"/>
<path opacity="0.2" d="M59.2485 190.065C63.0034 188.152 64.6198 186.054 61.5114 183.455C59.435 181.73 57.0078 180.361 54.3379 179.408C54.3379 179.408 59.5332 183.099 60.1448 186.045C60.7564 188.992 59.2485 190.065 59.2485 190.065Z" fill="#252525"/>
<path d="M72.5881 183.074C75.486 181.682 78.6402 180.767 81.8673 180.381C85.0944 179.995 88.33 180.146 91.3861 180.826C97.5376 182.406 102.757 185.654 106.267 190.087C109.822 194.405 112.308 199.318 113.595 204.562C114.938 209.751 115.573 215.095 115.488 220.495C115.129 231.166 113.933 241.862 111.909 252.512C110.868 257.774 110.436 263.067 110.619 268.318C110.922 273.583 111.658 278.795 112.823 283.918C111.111 278.903 109.914 273.742 109.247 268.489C108.813 263.171 108.993 257.79 109.785 252.419C111.476 241.807 112.428 231.169 112.636 220.562C112.876 210.166 110.924 199.542 104.413 191.091C101.333 186.797 96.6058 183.559 90.927 181.855C85.0431 180.268 78.4723 180.705 72.5881 183.074Z" fill="#D1CCCC"/>
<path opacity="0.2" d="M72.5881 183.074C75.486 181.682 78.6402 180.767 81.8673 180.381C85.0944 179.995 88.33 180.146 91.3861 180.826C97.5376 182.406 102.757 185.654 106.267 190.087C109.822 194.405 112.308 199.318 113.595 204.562C114.938 209.751 115.573 215.095 115.488 220.495C115.129 231.166 113.933 241.862 111.909 252.512C110.868 257.774 110.436 263.067 110.619 268.318C110.922 273.583 111.658 278.795 112.823 283.918C111.111 278.903 109.914 273.742 109.247 268.489C108.813 263.171 108.993 257.79 109.785 252.419C111.476 241.807 112.428 231.169 112.636 220.562C112.876 210.166 110.924 199.542 104.413 191.091C101.333 186.797 96.6058 183.559 90.927 181.855C85.0431 180.268 78.4723 180.705 72.5881 183.074Z" fill="#252525"/>
<path d="M62.5256 216.245C63.7375 216.984 63.8364 219.874 62.7651 222.73C61.6939 225.586 59.8216 227.282 58.5844 226.447C57.3472 225.613 57.2944 222.787 58.3719 219.955C59.4495 217.123 61.2326 215.528 62.5256 216.245Z" fill="#D1CCCC"/>
<path opacity="0.2" d="M62.5256 216.245C63.7375 216.984 63.8364 219.874 62.7651 222.73C61.6939 225.586 59.8216 227.282 58.5844 226.447C57.3472 225.613 57.2944 222.787 58.3719 219.955C59.4495 217.123 61.2326 215.528 62.5256 216.245Z" fill="#252525"/>
<path d="M295.517 419.977C282.404 408.401 258.147 401.397 241.353 404.338C232.972 405.801 228.055 409.504 226.867 414.19L225.491 419.617C224.28 424.39 226.756 430.204 233.344 435.92C246.457 447.495 270.714 454.499 287.508 451.559C295.921 450.081 300.832 446.4 301.994 441.706L303.37 436.279C304.586 431.484 302.085 425.663 295.517 419.977Z" fill="#EBEBEB"/>
<path opacity="0.2" d="M295.517 419.977C282.404 408.401 258.147 401.397 241.353 404.338C232.972 405.801 228.055 409.504 226.867 414.19L225.491 419.617C224.28 424.39 226.756 430.204 233.344 435.92C246.457 447.495 270.714 454.499 287.508 451.559C295.921 450.081 300.832 446.4 301.994 441.706L303.37 436.279C304.586 431.484 302.085 425.663 295.517 419.977Z" fill="#252525"/>
<path opacity="0.2" d="M253.072 403.417C249.419 403.337 245.816 403.59 242.329 404.172C233.556 405.621 228.416 409.272 227.183 413.886L225.754 419.231C224.498 423.931 227.103 429.653 234.016 435.272C236.759 437.499 239.759 439.498 242.963 441.235L253.072 403.417Z" fill="#252525"/>
<path d="M241.537 404.357C258.279 401.402 282.471 408.417 295.555 420.019C308.64 431.622 305.675 443.425 288.934 446.38C272.192 449.335 248 442.321 234.916 430.718C221.831 419.115 224.823 407.203 241.537 404.357Z" fill="#EBEBEB"/>
<path opacity="0.4" d="M241.537 404.357C258.279 401.402 282.471 408.417 295.555 420.019C308.64 431.622 305.675 443.425 288.934 446.38C272.192 449.335 248 442.321 234.916 430.718C221.831 419.115 224.823 407.203 241.537 404.357Z" fill="#252525"/>
<path d="M271.961 399.636C235.395 389.054 227.212 400.903 225.483 407.757C223.753 414.611 227.263 421.716 236.215 429.6C243.445 435.403 251.943 439.796 261.024 442.423C270.105 445.051 279.513 445.84 288.489 444.727C299.935 442.722 306.284 438.47 308.008 431.638C309.732 424.806 308.501 410.21 271.961 399.636Z" fill="#EBEBEB"/>
<path opacity="0.1" d="M277.721 431.435L277.049 431.24C274.383 430.819 269.299 428.992 266.688 430.228C262.211 432.167 266.669 436.275 269.642 438.123C274.707 440.902 280.53 442.109 286.055 441.525C290.769 441.155 295.098 439.585 298.524 437.002C299.868 435.843 302.801 432.213 300.557 430.553C299.937 430.124 299.2 429.862 298.453 429.805C297.705 429.748 296.985 429.9 296.396 430.238C294.961 430.739 293.471 431.138 291.939 431.431C290.566 431.768 289.153 432.009 287.712 432.152C284.415 432.316 281.053 432.075 277.721 431.435Z" fill="white"/>
<path opacity="0.1" d="M261.55 422.112C282.712 429.983 299.697 427.122 306.977 420.871C303.606 414.093 294.426 406.104 272.022 399.63C235.423 389.054 227.228 400.891 225.495 407.738C223.762 414.586 227.274 421.685 236.231 429.563C243.467 435.362 251.973 439.752 261.062 442.378C270.151 445.005 279.568 445.794 288.552 444.683C291.007 444.261 293.397 443.668 295.7 442.91C286.787 445.179 273.271 444.877 257.331 438.118C241.392 431.359 239.394 413.885 261.55 422.112Z" fill="#252525"/>
<path opacity="0.1" d="M251.1 412.282L253.311 395.497C232.859 393.872 227.387 402.219 225.994 407.464C224.201 414.215 227.844 421.212 237.131 428.975L238.064 429.692C227.985 420.467 239.563 406.046 251.1 412.282Z" fill="#252525"/>
<path d="M298.961 394.4C287.905 384.668 267.464 378.774 253.333 381.244C246.254 382.475 242.096 385.577 241.103 389.592L239.58 395.581C238.561 399.588 240.629 404.485 246.157 409.351C257.208 419.105 277.648 424.999 291.785 422.507C298.89 421.283 303.022 418.173 304.015 414.159L305.538 408.17C306.583 404.171 304.463 399.259 298.961 394.4Z" fill="#EBEBEB"/>
<path opacity="0.2" d="M298.961 394.4C287.905 384.668 267.464 378.774 253.333 381.244C246.254 382.475 242.096 385.577 241.103 389.592L239.58 395.581C238.561 399.588 240.629 404.485 246.157 409.351C257.208 419.105 277.648 424.999 291.785 422.507C298.89 421.283 303.022 418.173 304.015 414.159L305.538 408.17C306.583 404.171 304.463 399.259 298.961 394.4Z" fill="#252525"/>
<path opacity="0.2" d="M246.774 408.785C248.838 410.451 251.08 411.961 253.466 413.295L262.238 380.561C259.517 380.512 256.83 380.692 254.223 381.1C246.784 382.323 242.424 385.383 241.393 389.337L239.812 395.236C238.673 399.161 240.957 403.959 246.774 408.785Z" fill="#252525"/>
<path d="M253.539 381.266C267.612 378.78 287.979 384.685 299.003 394.447C310.027 404.209 307.503 414.147 293.425 416.654C279.346 419.162 258.985 413.235 247.961 403.473C236.937 393.711 239.441 383.744 253.539 381.266Z" fill="#F5F5F5"/>
<path d="M304.528 400.069C302.596 391.538 296.935 372.881 302.196 352.843L273.118 344.685C267.823 364.853 253.85 377.862 247.984 384.206C244.331 388.392 245.476 394.41 251.992 400.291C257.581 404.892 264.292 408.364 271.508 410.388C278.723 412.412 286.211 412.924 293.283 411.875C301.697 410.206 305.633 405.59 304.528 400.069Z" fill="#EBEBEB"/>
<path opacity="0.1" d="M300.299 354.162C298.625 365.998 298.369 378.065 299.534 390.211C300.41 398.062 302.943 403.914 296.533 407.021C290.124 410.129 277.08 408.203 277.08 408.203C282.164 407.904 287.003 406.822 291.333 405.014C297.808 402.107 296.316 395.082 296.155 389.362C295.995 380.093 296.18 365.784 300.299 354.162Z" fill="white"/>
<path opacity="0.1" d="M276.234 410.893C273.918 409.302 269.049 406.24 277.724 389.622C286.4 373.004 287.604 368.176 292.465 349.678L273.666 344.609C268.315 364.608 253.981 377.63 247.974 383.947C244.233 388.115 245.433 394.098 252.155 399.937C258.896 405.404 267.307 409.231 276.234 410.893Z" fill="#252525"/>
<path opacity="0.1" d="M267.296 376.686C274.12 365.833 275.547 364.782 280.691 346.166L274.427 344.547C268.996 364.554 254.301 377.494 248.139 383.802C244.304 387.963 245.572 393.924 252.533 399.731C254.393 401.262 256.435 402.65 258.623 403.87C249.986 395.935 260.192 388.017 267.296 376.686Z" fill="#252525"/>
<path d="M305.612 344.975C301.598 341.757 296.873 339.321 291.821 337.866C286.769 336.411 281.533 335.977 276.541 336.601C274.729 336.744 273.052 337.311 271.684 338.243C270.315 339.175 269.304 340.439 268.754 341.904L267.606 346.409C267.38 347.972 267.65 349.61 268.388 351.153C269.127 352.696 270.306 354.089 271.805 355.188C275.825 358.397 280.55 360.827 285.6 362.282C290.65 363.736 295.883 364.175 300.876 363.562C302.692 363.418 304.372 362.849 305.742 361.913C307.112 360.977 308.122 359.708 308.669 358.238L309.817 353.732C310.037 352.172 309.764 350.539 309.025 348.999C308.286 347.46 307.108 346.071 305.612 344.975Z" fill="#E0E0E0"/>
<path opacity="0.2" d="M290.053 337.2C285.644 336.172 281.134 335.956 276.85 336.568C274.988 336.71 273.266 337.271 271.859 338.193C270.453 339.115 269.414 340.364 268.849 341.813L267.671 346.269C267.439 347.814 267.717 349.433 268.476 350.959C269.235 352.485 270.447 353.863 271.988 354.949C275.394 357.677 279.396 359.811 283.705 361.198L290.053 337.2Z" fill="#252525"/>
<path d="M276.696 336.617C281.664 335.988 286.877 336.42 291.907 337.879C296.938 339.337 301.645 341.781 305.644 345.01C312.653 351.216 311.061 357.555 302.097 359.13C297.129 359.759 291.917 359.327 286.886 357.868C281.855 356.409 277.148 353.966 273.149 350.737C266.129 344.574 267.732 338.192 276.696 336.617Z" fill="#F5F5F5"/>
<path d="M293.256 333.245C273.899 327.644 269.615 333.946 268.7 337.569C267.786 341.193 269.636 344.866 274.356 349.16C278.195 352.227 282.701 354.551 287.514 355.943C292.327 357.336 297.312 357.759 302.072 357.18C308.121 356.096 311.495 353.841 312.41 350.217C313.324 346.594 312.613 338.847 293.256 333.245Z" fill="#EBEBEB"/>
<path opacity="0.1" d="M296.298 350.106L295.962 350.009C294.477 349.742 291.855 348.817 290.555 349.472C288.186 350.521 290.553 352.686 292.272 353.677C294.956 355.147 298.041 355.784 300.966 355.473C303.47 355.284 305.768 354.451 307.581 353.075C308.289 352.46 309.825 350.535 308.639 349.628C308.308 349.402 307.916 349.266 307.519 349.24C307.122 349.213 306.741 349.297 306.431 349.48C305.677 349.739 304.894 349.943 304.089 350.091C303.368 350.28 302.622 350.409 301.859 350.476C300.028 350.596 298.154 350.471 296.298 350.106Z" fill="white"/>
<path opacity="0.1" d="M287.741 345.165C298.943 349.338 307.945 347.821 311.812 344.515C309.95 340.888 305.153 336.67 293.289 333.242C273.914 327.644 269.624 333.939 268.707 337.559C267.791 341.179 269.641 344.85 274.365 349.14C278.207 352.205 282.717 354.527 287.534 355.918C292.351 357.31 297.342 357.734 302.107 357.156C303.401 356.929 304.662 356.612 305.877 356.209C299.286 357.594 292.031 356.685 285.562 353.662C277.144 350.13 276.026 340.821 287.741 345.165Z" fill="#252525"/>
<path opacity="0.1" d="M282.208 339.962L283.391 331.061C272.529 330.201 269.661 334.603 268.918 337.398C267.97 340.967 269.89 344.584 274.788 348.812L275.294 349.182C269.997 344.291 276.089 336.645 282.208 339.962Z" fill="#252525"/>
<path d="M310.761 328.457C306.742 325.248 302.016 322.818 296.966 321.363C291.916 319.909 286.683 319.47 281.69 320.083C277.194 320.89 274.552 322.839 273.903 325.386L272.75 329.913C272.524 331.473 272.794 333.108 273.534 334.648C274.273 336.188 275.455 337.577 276.955 338.67C280.968 341.888 285.694 344.324 290.746 345.779C295.798 347.235 301.034 347.668 306.026 347.044C307.84 346.906 309.519 346.34 310.888 345.408C312.258 344.475 313.268 343.209 313.813 341.741L314.966 337.214C315.168 335.653 314.885 334.024 314.148 332.488C313.41 330.952 312.243 329.563 310.761 328.457Z" fill="#E0E0E0"/>
<path opacity="0.2" d="M295.202 320.681C290.797 319.654 286.29 319.431 282.005 320.028C277.385 320.827 274.67 322.755 274.004 325.273L272.82 329.75C272.588 331.293 272.867 332.91 273.627 334.432C274.387 335.955 275.601 337.328 277.143 338.409C280.541 341.149 284.542 343.291 288.855 344.679L295.202 320.681Z" fill="#252525"/>
<path d="M281.846 320.099C286.815 319.481 292.024 319.918 297.053 321.376C302.081 322.834 306.788 325.272 310.793 328.492C317.797 334.72 316.21 341.037 307.241 342.634C302.271 343.251 297.062 342.814 292.034 341.356C287.005 339.898 282.298 337.461 278.293 334.241C271.289 328.013 272.876 321.696 281.846 320.099Z" fill="#F5F5F5"/>
<path d="M317.431 326.999C316.597 330.213 314.627 333.028 311.771 335.086C308.916 337.145 305.303 338.355 301.388 338.563C297.474 338.772 293.435 337.969 289.782 336.257C286.129 334.546 283.025 332.002 280.864 328.947C278.703 325.892 277.581 322.463 277.641 319.095C277.7 315.726 278.938 312.569 281.198 310.022C283.458 307.476 286.639 305.654 290.338 304.788C294.036 303.921 298.087 304.049 301.978 305.155C307.196 306.638 311.755 309.772 314.653 313.869C317.551 317.965 318.55 322.688 317.431 326.999Z" fill="#EBEBEB"/>
<path opacity="0.2" d="M317.427 326.998C316.613 330.134 314.719 332.892 311.972 334.938C309.226 336.984 305.744 338.231 301.947 338.529C298.151 338.827 294.201 338.162 290.574 336.616C286.948 335.07 283.8 332.708 281.51 329.814C279.22 326.921 277.886 323.621 277.668 320.311C277.451 317.001 278.36 313.823 280.285 311.16C282.21 308.498 285.069 306.464 288.518 305.305C291.966 304.146 295.857 303.911 299.721 304.628C296.914 304.754 294.28 305.502 292.07 306.8C289.86 308.098 288.148 309.903 287.099 312.042C286.05 314.181 285.698 316.582 286.078 319.015C286.457 321.449 287.555 323.833 289.267 325.939C290.978 328.046 293.245 329.804 295.851 331.046C298.457 332.287 301.315 332.971 304.15 333.031C306.986 333.091 309.704 332.525 312.045 331.388C314.385 330.25 316.27 328.58 317.518 326.536C317.501 326.693 317.47 326.847 317.427 326.998Z" fill="#252525"/>
<path opacity="0.2" d="M307.031 309.891C305.729 309.236 304.309 308.828 302.874 308.695C301.888 308.543 300.916 308.703 300.139 309.147C299.363 309.59 298.837 310.286 298.661 311.102C298.262 313.322 300.827 314.853 302.688 315.973L305.916 317.858C307.349 318.691 308.474 319.855 309.918 320.644C311.362 321.432 312.7 320.673 313.011 319.455C313.327 318.472 313.331 317.403 313.022 316.354C312.654 315.177 311.986 314.058 311.068 313.083C310.016 311.772 308.627 310.674 307.031 309.891Z" fill="white"/>
<path d="M329.01 174.146C315.206 164.027 290.823 159.439 274.565 163.902C266.448 166.148 261.919 170.22 261.127 174.928L260.21 180.38C259.406 185.153 262.299 190.644 269.227 195.63C283.031 205.749 307.414 210.337 323.671 205.873C331.815 203.633 336.347 199.539 337.128 194.739L338.042 189.308C338.845 184.693 335.897 179.214 329.01 174.146Z" fill="#37474F"/>
<path opacity="0.2" d="M329.01 174.146C315.206 164.027 290.823 159.439 274.565 163.902C266.448 166.148 261.919 170.22 261.127 174.928L260.21 180.38C259.406 185.153 262.299 190.644 269.227 195.63C283.031 205.749 307.414 210.337 323.671 205.873C331.815 203.633 336.347 199.539 337.128 194.739L338.042 189.308C338.845 184.693 335.897 179.214 329.01 174.146Z" fill="#252525"/>
<path opacity="0.2" d="M285.382 162.251C281.847 162.441 278.383 162.968 275.059 163.821C266.698 166.059 262.042 170.105 261.238 174.778L260.308 180.189C259.493 184.927 262.489 190.372 269.643 195.311C272.483 197.274 275.563 198.978 278.823 200.391L285.382 162.251Z" fill="#252525"/>
<path d="M274.665 163.912C290.894 159.436 315.242 164.023 329.031 174.156C342.82 184.289 340.838 196.156 324.609 200.632C308.38 205.108 284.032 200.52 270.243 190.388C256.454 180.255 258.429 168.432 274.665 163.912Z" fill="#37474F"/>
<path opacity="0.4" d="M274.665 163.912C290.894 159.436 315.242 164.023 329.031 174.156C342.82 184.289 340.838 196.156 324.609 200.632C308.38 205.108 284.032 200.52 270.243 190.388C256.454 180.255 258.429 168.432 274.665 163.912Z" fill="#252525"/>
<path d="M304.065 156.477C267.311 149.556 260.381 162.064 259.242 168.858C258.104 175.652 262.079 182.369 271.505 189.253C279.08 194.247 287.782 197.744 296.913 199.464C306.044 201.183 315.35 201.077 324.084 199.154C335.178 196.088 341.078 191.321 342.225 184.484C343.371 177.646 340.715 163.378 304.065 156.477Z" fill="#37474F"/>
<path opacity="0.1" d="M312.633 186.991L311.957 186.864C309.175 186.656 304.155 185.393 301.689 186.83C297.435 189.174 302.149 192.755 305.22 194.285C310.416 196.546 316.243 197.186 321.631 196.088C326.246 195.279 330.382 193.324 333.541 190.456C334.793 189.221 337.368 185.361 335.029 183.947C334.388 183.578 333.641 183.387 332.899 183.402C332.157 183.417 331.46 183.638 330.911 184.031C329.538 184.604 328.112 185.092 326.644 185.49C325.325 185.959 323.953 186.329 322.543 186.596C319.317 187.136 315.98 187.269 312.633 186.991Z" fill="white"/>
<path opacity="0.1" d="M295.605 179.529C317.049 185.259 333.483 180.828 340.132 174.036C336.283 167.685 326.627 160.716 304.1 156.476C267.327 149.556 260.391 162.056 259.25 168.846C258.109 175.636 262.085 182.349 271.514 189.23C279.092 194.222 287.798 197.718 296.934 199.438C306.07 201.157 315.381 201.052 324.121 199.131C326.494 198.478 328.794 197.672 331.001 196.72C322.426 199.783 309.128 200.738 292.929 195.61C276.73 190.483 273.268 173.518 295.605 179.529Z" fill="#252525"/>
<path opacity="0.1" d="M284.07 171.16L284.839 154.39C264.845 154.65 260.267 163.37 259.355 168.676C258.18 175.504 262.27 182.08 271.922 188.907L272.886 189.531C262.344 181.331 272.365 166.045 284.07 171.16Z" fill="#252525"/>
<path d="M333.104 145.275C320.111 135.742 297.149 131.424 281.811 135.63C274.143 137.733 269.89 141.585 269.134 146.071L267.997 152.811C267.237 157.32 269.969 162.485 276.479 167.254C289.499 176.792 312.461 181.109 327.772 176.899C335.44 174.796 339.719 170.949 340.453 166.436L341.59 159.695C342.346 155.209 339.614 150.044 333.104 145.275Z" fill="#37474F"/>
<path opacity="0.2" d="M276.919 166.946C279.286 168.576 281.835 170.015 284.524 171.239L290.9 134.151C287.963 134.369 285.087 134.838 282.317 135.551C274.391 137.65 270.006 141.479 269.241 145.933L268.09 152.625C267.24 157.087 270.166 162.223 276.919 166.946Z" fill="#252525"/>
<path d="M281.938 135.642C297.239 131.421 320.156 135.739 333.13 145.288C346.105 154.837 344.24 166.002 328.968 170.207C313.697 174.411 290.776 170.115 277.776 160.561C264.776 151.007 266.663 139.868 281.938 135.642Z" fill="#455A64"/>
<path d="M337.105 153.042C334.333 144.417 328.001 118.813 334.686 79.9511L303.805 74.3187C297.121 113.181 282.661 134.992 277.181 142.112C273.772 146.761 275.492 152.884 282.631 158.313C293.647 166.58 313.187 170.144 326.29 166.276C335.097 163.756 338.755 158.614 337.105 153.042Z" fill="#37474F"/>
<path opacity="0.1" d="M328.271 105.617C327.681 118.094 328.541 130.683 330.838 143.225C332.303 151.277 335.533 157.176 329.354 160.982C323.175 164.789 309.818 163.96 309.818 163.96C314.929 163.191 319.717 161.618 323.914 159.329C330.229 155.725 328.019 148.527 327.353 142.624C326.314 132.924 325.196 118.048 328.271 105.617Z" fill="white"/>
<path opacity="0.1" d="M308.923 167.246C306.348 165.812 301.166 163.117 308.476 145.049C315.785 126.982 320.866 97.4093 324.156 77.7669L304.264 74.2902C297.598 113.09 282.846 134.889 277.248 142.007C273.769 146.654 275.57 152.762 282.939 158.165C290.444 163.204 299.52 166.376 308.923 167.246Z" fill="#252525"/>
<path opacity="0.1" d="M296.479 132.694C302.472 120.772 308.081 95.1317 311.581 75.2982L304.909 74.188C298.24 112.95 283.1 134.752 277.348 141.872C273.774 146.52 275.675 152.615 283.335 157.996C285.422 159.404 287.673 160.653 290.053 161.724C280.43 154.344 290.218 145.151 296.479 132.694Z" fill="#252525"/>
<path d="M343.417 63.1454C337.712 59.3827 331.147 56.7478 324.256 55.4539C317.365 54.1601 310.34 54.2436 303.751 55.6977C297.849 57.3189 294.546 60.2853 293.958 63.7613L292.517 72.2653C291.929 75.7413 293.95 79.7072 299.056 83.418C304.762 87.1807 311.326 89.8156 318.218 91.1095C325.109 92.4034 332.133 92.3198 338.723 90.8657C344.655 89.2275 347.957 86.2611 348.52 82.7803L349.96 74.2762C350.575 70.8052 348.45 66.8196 343.417 63.1454Z" fill="#37474F"/>
<path opacity="0.2" d="M343.417 63.1454C337.712 59.3827 331.147 56.7478 324.256 55.4539C317.365 54.1601 310.34 54.2436 303.751 55.6977C297.849 57.3189 294.546 60.2853 293.958 63.7613L292.517 72.2653C291.929 75.7413 293.95 79.7072 299.056 83.418C304.762 87.1807 311.326 89.8156 318.218 91.1095C325.109 92.4034 332.133 92.3198 338.723 90.8657C344.655 89.2275 347.957 86.2611 348.52 82.7803L349.96 74.2762C350.575 70.8052 348.45 66.8196 343.417 63.1454Z" fill="#252525"/>
<path opacity="0.2" d="M321.454 54.8899C315.523 54.0633 309.549 54.3277 303.963 55.664C297.954 57.2802 294.594 60.2332 293.999 63.6915L292.544 72.1522C291.949 75.6105 294.013 79.5547 299.22 83.2431C304.019 86.4775 309.541 88.8428 315.386 90.1686L321.454 54.8899Z" fill="#252525"/>
<path d="M303.912 55.7114C310.477 54.2489 317.477 54.1612 324.346 55.4555C331.215 56.7498 337.76 59.3898 343.451 63.1617C353.463 70.5237 352.024 79.1443 340.238 82.3989C333.675 83.8724 326.672 83.9656 319.801 82.6708C312.93 81.3761 306.384 78.7301 300.699 74.9487C290.686 67.5866 292.126 58.9661 303.912 55.7114Z" fill="#455A64"/>
<path d="M348.743 63.6553C346.99 73.8717 334.595 80.1129 321.04 77.5977C307.485 75.0825 297.93 64.7682 299.682 54.5517C301.434 44.3353 315.978 25.7259 329.507 28.2362C343.036 30.7466 350.495 53.4388 348.743 63.6553Z" fill="#37474F"/>
<path d="M310.475 61.3125C305.964 48.5741 318.856 34.5588 323.991 32.7224C326.257 33.9423 328.817 34.671 331.419 34.8369C334.022 35.0027 336.577 34.5998 338.834 33.668C336.567 31.0146 333.273 29.0783 329.583 28.2299C316.016 25.7231 301.438 44.3236 299.685 54.5342C297.931 64.7449 307.543 75.0565 321.109 77.5634C324.777 78.2725 328.521 78.3203 332.086 77.7036C335.651 77.0869 338.953 75.8203 341.766 73.9902C334.665 77.1256 314.99 74.0293 310.475 61.3125Z" fill="#263238"/>
<path d="M344.635 22.8358C344.272 24.9624 343.159 26.8997 341.437 28.4029C339.715 29.9061 337.461 30.9075 334.961 31.2805C332.46 31.6536 329.826 31.3815 327.39 30.4987C324.954 29.6159 322.827 28.162 321.276 26.3209C319.726 24.4798 318.823 22.3342 318.68 20.1554C318.538 17.9766 319.164 15.8624 320.477 14.0802C321.791 12.2981 323.734 10.928 326.061 10.1432C328.388 9.35835 330.994 9.19414 333.55 9.67123C336.977 10.311 340.071 12.0573 342.15 14.5261C344.228 16.995 345.122 19.9841 344.635 22.8358Z" fill="#455A64"/>
<path opacity="0.2" d="M344.633 22.8352C344.282 24.9113 343.218 26.8093 341.567 28.3001C339.916 29.791 337.75 30.811 335.33 31.2371C332.91 31.6632 330.339 31.4772 327.928 30.7014C325.517 29.9257 323.369 28.5935 321.742 26.8655C320.116 25.1375 319.081 23.0876 318.762 20.9631C318.443 18.8386 318.854 16.7302 319.946 14.8925C321.037 13.0549 322.762 11.5663 324.913 10.6066C327.064 9.64679 329.548 9.25676 332.066 9.48359C330.266 9.7324 328.609 10.3743 327.255 11.3475C325.901 12.3207 324.894 13.5925 324.332 15.0408C323.771 16.489 323.672 18.065 324.047 19.6172C324.422 21.1694 325.257 22.6456 326.472 23.9041C327.687 25.1625 329.241 26.1609 330.986 26.8031C332.73 27.4454 334.606 27.71 336.432 27.5715C338.259 27.433 339.975 26.896 341.415 26.0123C342.856 25.1285 343.973 23.9276 344.659 22.525C344.663 22.6297 344.654 22.7336 344.633 22.8352Z" fill="#252525"/>
<path opacity="0.2" d="M337.061 12.3667C336.187 12.0332 335.253 11.8578 334.323 11.8522C333.688 11.8145 333.076 11.973 332.601 12.2984C332.126 12.6239 331.819 13.0944 331.737 13.6233C331.504 15.0015 333.315 15.9061 334.601 16.4185L336.796 17.4403C337.742 17.889 338.544 18.5588 339.494 18.9856C340.444 19.4124 341.218 18.8131 341.403 18.0353C341.574 17.3877 341.523 16.6976 341.256 16.0439C340.978 15.3126 340.513 14.6313 339.898 14.0508C339.112 13.3087 338.138 12.73 337.061 12.3667Z" fill="white"/>
</svg>
