<svg width="244" height="350" viewBox="0 0 338 484" fill="none" xmlns="http://www.w3.org/2000/svg">
<path d="M92.3641 167.939C79.6136 164.547 60.8847 168.776 50.5287 177.385C45.3595 181.687 43.2704 186.256 44.0793 190.188L44.9791 194.662C45.7704 198.598 49.4165 201.955 55.7966 203.583C68.5472 206.974 87.276 202.745 97.632 194.137C102.801 189.834 104.887 185.249 104.078 181.318L103.178 176.843C102.387 172.908 98.7394 169.634 92.3641 167.939Z" fill="#37474F"/>
<path opacity="0.2" d="M92.3641 167.939C79.6136 164.547 60.8847 168.776 50.5287 177.385C45.3595 181.687 43.2704 186.256 44.0793 190.188L44.9791 194.662C45.7704 198.598 49.4165 201.955 55.7966 203.583C68.5472 206.974 87.276 202.745 97.632 194.137C102.801 189.834 104.887 185.249 104.078 181.318L103.178 176.843C102.387 172.908 98.7394 169.634 92.3641 167.939Z" fill="#252525"/>
<path opacity="0.2" d="M58.0375 173.367C55.5373 174.583 53.1911 176.041 51.0475 177.711C45.6508 181.961 43.4586 186.481 44.2851 190.373L45.204 194.804C46.0121 198.701 49.7935 202.03 56.4272 203.652C59.0527 204.306 61.7795 204.683 64.5512 204.776L58.0375 173.367Z" fill="#252525"/>
<path d="M50.5041 177.403C60.8426 168.779 79.5316 164.547 92.2506 167.95C104.97 171.352 106.911 181.084 96.59 189.704C86.2691 198.323 67.5624 202.559 54.8435 199.157C42.1245 195.754 40.18 186.006 50.5041 177.403Z" fill="#37474F"/>
<path opacity="0.4" d="M50.5041 177.403C60.8426 168.779 79.5316 164.547 92.2506 167.95C104.97 171.352 106.911 181.084 96.59 189.704C86.2691 198.323 67.5624 202.559 54.8435 199.157C42.1245 195.754 40.18 186.006 50.5041 177.403Z" fill="#252525"/>
<path d="M69.1451 162.366C40.935 168.746 39.4242 180.529 40.5567 186.184C41.6891 191.839 46.4536 195.66 55.1378 197.98C61.9723 199.404 69.1854 199.32 76.1997 197.734C83.2141 196.148 89.8346 193.103 95.5311 188.845C102.592 182.964 105.462 177.417 104.329 171.762C103.197 166.106 97.3904 155.979 69.1451 162.366Z" fill="#37474F"/>
<path opacity="0.1" d="M84.2123 182.668L83.684 182.788C81.6392 183.517 77.732 184.136 76.3408 186.114C73.968 189.262 78.3611 190.528 80.9275 190.661C85.2819 190.745 89.6298 189.382 93.1745 186.823C96.2418 184.725 98.6438 181.901 100.093 178.689C100.616 177.34 101.39 173.557 99.3122 173.196C98.7483 173.113 98.1577 173.203 97.6296 173.451C97.1014 173.7 96.6644 174.094 96.3844 174.574C95.5806 175.487 94.7059 176.346 93.7679 177.145C92.9622 177.926 92.0898 178.646 91.1603 179.299C89.0045 180.702 86.6661 181.836 84.2123 182.668Z" fill="white"/>
<path opacity="0.1" d="M69.667 182.808C86.6115 180.39 97.1079 171.763 99.9185 164.357C95.3498 160.71 86.4434 158.424 69.1523 162.331C40.922 168.709 39.4127 180.483 40.5474 186.135C41.682 191.786 46.451 195.604 55.1424 197.922C61.9825 199.344 69.2012 199.259 76.2205 197.673C83.2398 196.087 89.8647 193.045 95.5647 188.789C97.0799 187.539 98.4924 186.187 99.7887 184.748C94.5885 189.806 85.3186 194.804 72.2675 195.944C59.2165 197.084 51.9864 185.326 69.667 182.808Z" fill="#252525"/>
<path opacity="0.1" d="M59.2988 180.698L54.9335 167.594C40.5933 173.981 39.8415 182.014 40.7463 186.386C41.9048 191.985 46.8128 195.771 55.7665 198.073L56.6386 198.246C46.5585 195.185 49.2924 180.381 59.2988 180.698Z" fill="#252525"/>
<path d="M86.4877 143.641C73.7486 140.264 55.0602 144.48 44.7305 153.061C39.5729 157.342 37.5006 161.904 38.2899 165.822C38.4401 166.567 39.3221 170.944 39.4723 171.689C40.2616 175.607 43.8948 178.882 50.2748 180.576C63.014 183.953 81.7023 179.737 92.032 171.156C97.1865 166.86 99.2587 162.297 98.4518 158.384L97.2694 152.516C96.4978 148.595 92.8469 145.324 86.4877 143.641Z" fill="#37474F"/>
<path opacity="0.2" d="M86.4877 143.641C73.7486 140.264 55.0602 144.48 44.7305 153.061C39.5729 157.342 37.5006 161.904 38.2899 165.822C38.4401 166.567 39.3221 170.944 39.4723 171.689C40.2616 175.607 43.8948 178.882 50.2748 180.576C63.014 183.953 81.7023 179.737 92.032 171.156C97.1865 166.86 99.2587 162.297 98.4518 158.384L97.2694 152.516C96.4978 148.595 92.8469 145.324 86.4877 143.641Z" fill="#252525"/>
<path opacity="0.2" d="M50.8646 180.67C53.2002 181.233 55.613 181.585 58.0655 181.721L51.3821 149.522C49.1858 150.639 47.1163 151.945 45.2082 153.418C39.7972 157.646 37.6091 162.158 38.4143 166.038C38.5676 166.776 39.4674 171.111 39.6206 171.849C40.4444 175.725 44.2061 178.979 50.8646 180.67Z" fill="#252525"/>
<path d="M44.7003 153.084C55.0067 144.484 73.6428 140.264 86.3408 143.655C99.0389 147.045 100.956 156.75 90.6674 165.345C80.3787 173.941 61.725 178.165 49.0269 174.774C36.3288 171.384 34.3908 161.667 44.7003 153.084Z" fill="#455A64"/>
<path d="M93.2451 148.908C88.0772 142.996 74.3791 124.767 67.5073 91.4931L39.3181 97.6491C46.1899 130.923 40.8653 153.24 38.511 160.861C37.105 165.757 40.5572 170.037 48.5022 171.839C60.5976 174.626 78.4869 170.719 88.4188 163.122C95.0021 158.147 96.4469 152.798 93.2451 148.908Z" fill="#37474F"/>
<path opacity="0.1" d="M70.6878 113.465C74.2638 123.665 79.1117 133.447 85.1535 142.655C89.0675 148.623 93.7496 152.338 89.6645 157.336C85.5794 162.335 73.817 166.117 73.817 166.117C77.8842 163.885 81.4848 161.069 84.4402 157.808C88.6546 152.865 84.4651 147.837 81.9709 143.311C77.8356 135.998 72.0133 124.45 70.6878 113.465Z" fill="white"/>
<path opacity="0.1" d="M74.0423 170.582C71.3733 170.288 65.9342 169.868 66.4936 152.995C67.053 136.122 61.6241 110.852 58.132 94.0549L39.9096 97.86C46.809 131.045 41.1954 153.282 38.7258 160.873C37.249 165.751 40.7843 170.025 48.9652 171.839C57.1446 173.363 65.8117 172.929 74.0423 170.582Z" fill="#252525"/>
<path opacity="0.1" d="M52.1941 147.563C53.4655 136.126 49.9031 113.83 46.4246 96.8392L40.3121 98.055C47.2531 131.19 41.3008 153.371 38.6958 160.942C37.1359 165.808 40.7713 170.081 49.234 171.908C51.5223 172.379 53.8763 172.666 56.2639 172.763C45.5261 169.886 50.8599 159.47 52.1941 147.563Z" fill="#252525"/>
<path d="M63.6709 73.4391C54.2894 70.9633 40.5231 74.0616 32.9178 80.3604C29.1136 83.5019 27.5915 86.8585 28.1687 89.7095L29.5987 96.7736C30.179 99.6404 32.8505 102.053 37.5541 103.263C46.9356 105.739 60.702 102.641 68.3072 96.3421C72.1082 93.1847 73.6303 89.8282 73.0564 86.993L71.6264 79.9289C71.1023 77.066 68.3633 74.685 63.6709 73.4391Z" fill="#37474F"/>
<path opacity="0.2" d="M63.6709 73.4391C54.2894 70.9633 40.5231 74.0616 32.9178 80.3604C29.1136 83.5019 27.5915 86.8585 28.1687 89.7095L29.5987 96.7736C30.179 99.6404 32.8505 102.053 37.5541 103.263C46.9356 105.739 60.702 102.641 68.3072 96.3421C72.1082 93.1847 73.6303 89.8282 73.0564 86.993L71.6264 79.9289C71.1023 77.066 68.3633 74.685 63.6709 73.4391Z" fill="#252525"/>
<path opacity="0.2" d="M45.5644 74.523C41.0099 75.707 36.7454 77.7566 33.083 80.5217C29.1788 83.6382 27.6124 86.9703 28.1979 89.8021L29.6487 96.8187C30.2374 99.6662 32.9697 102.065 37.7866 103.271C42.2285 104.275 46.9376 104.376 51.5691 103.565L45.5644 74.523Z" fill="#252525"/>
<path d="M32.8816 80.3868C40.4577 74.0671 54.1611 70.9639 63.4942 73.4546C72.8273 75.9452 74.2513 83.0857 66.6658 89.3576C59.0802 95.6296 45.3863 98.7804 36.0532 96.2898C26.7201 93.7992 25.3056 86.7064 32.8816 80.3868Z" fill="#455A64"/>
<path d="M60.5042 46.1597C49.2889 43.2289 32.8317 46.8988 23.7425 54.3574C18.5112 58.6443 16.8837 63.2503 18.5513 66.9398L29.807 88.6333C30.4697 89.8094 31.4129 90.8284 32.5739 91.6226C33.735 92.4168 35.0875 92.9682 36.5417 93.2402C41.1951 94.2055 46.1101 94.1533 50.888 93.0879C55.6659 92.0224 60.1723 89.9737 64.0417 87.1078C65.2626 86.2393 66.2812 85.1592 67.03 83.9391C67.7789 82.7189 68.2409 81.3867 68.3854 80.0305L70.1802 55.4929C70.263 51.347 66.9746 47.8372 60.5042 46.1597Z" fill="#37474F"/>
<path opacity="0.1" d="M61.8602 46.5859C62.5077 57.2933 62.6245 74.1083 63.2699 86.5164C64.5556 85.6601 65.6313 84.6001 66.4275 83.405C67.2237 82.2098 67.7228 80.9059 67.8926 79.5773L70.0731 55.233C70.1019 51.6633 67.2968 48.4894 61.8602 46.5859Z" fill="white"/>
<path opacity="0.1" d="M29.8085 51.145C27.8058 52.1383 25.9194 53.3059 24.1822 54.6274C18.6753 58.8712 16.9377 63.4426 18.6555 67.1133L30.2585 88.7199C30.9434 89.8904 31.9229 90.9056 33.1321 91.6981C34.3414 92.4907 35.7527 93.0425 37.2727 93.3171C39.2327 93.776 41.2722 94.0113 43.3401 94.0172L29.8085 51.145Z" fill="#252525"/>
<path d="M23.6615 54.4228C32.6581 46.9175 48.9338 43.232 60.0176 46.1904C71.1014 49.1488 72.7921 57.6247 63.7954 65.13C54.7988 72.6354 38.5231 76.3208 27.4393 73.3624C16.3555 70.404 14.6648 61.9281 23.6615 54.4228Z" fill="#455A64"/>
<path d="M60.1782 63.1731C52.5779 69.4118 38.8044 72.4871 29.4282 70.0389C24.0212 68.6202 21.266 65.7011 21.3272 62.2688L23.082 43C23.2102 41.866 23.5989 40.7527 24.2233 39.7316C24.8477 38.7106 25.694 37.8042 26.7078 37.0707C29.9456 34.6705 33.716 32.9546 37.7136 32.062C41.7111 31.1695 45.8233 31.1254 49.7169 31.9333C50.932 32.1673 52.0621 32.6316 53.0344 33.2962C54.0067 33.9609 54.7997 34.8112 55.3624 35.7926L64.4982 52.6297C65.9107 55.7164 64.5456 59.506 60.1782 63.1731Z" fill="#37474F"/>
<path opacity="0.1" d="M60.9569 61.7795C57.8672 53.3177 52.5999 41.621 48.9443 31.8684C50.2115 32.1137 51.3859 32.5799 52.3942 33.2379C53.4025 33.8959 54.223 34.7316 54.8043 35.6928L64.3476 52.4366C65.6546 55.1951 64.5756 58.5552 60.9569 61.7795Z" fill="white"/>
<path opacity="0.1" d="M35.2754 70.8869C33.4173 70.7924 31.5903 70.5267 29.8257 70.0944C24.1863 68.6699 21.3281 65.7623 21.4161 62.3527L23.3842 43.2158C23.526 42.0895 23.94 40.9847 24.5995 39.9721C25.259 38.9595 26.1495 38.0615 27.2139 37.3357C28.5755 36.3315 30.0673 35.4689 31.6544 34.7681L35.2754 70.8869Z" fill="#252525"/>
<path d="M28.8823 49.0597C32.737 49.875 36.8091 49.8326 40.7689 48.9359C44.7287 48.0393 48.465 46.3136 51.6754 43.8985C57.3248 39.1788 56.2653 33.8675 49.3028 32.0037C45.448 31.1884 41.3759 31.2308 37.4161 32.1274C33.4563 33.0241 29.72 34.7498 26.5096 37.1648C20.8602 41.8845 21.9197 47.1958 28.8823 49.0597Z" fill="#455A64"/>
<path d="M50.3557 32.9516C50.2562 32.9067 50.16 32.8564 50.0676 32.8009L49.741 32.6423C46.0019 30.6927 41.4984 30.1583 37.1314 31.146C32.7644 32.1337 28.8558 34.5707 26.1874 37.9695L25.8921 38.3352L25.6577 38.6373C23.1707 42.1391 24.6747 45.6018 29.774 46.956C33.174 47.6685 36.7638 47.6285 40.2546 46.8389C43.7453 46.0494 47.0395 44.5325 49.872 42.4103C54.0094 38.8674 54.0681 35.0181 50.3557 32.9516Z" fill="#37474F"/>
<path opacity="0.2" d="M43.4287 31.3684C45.844 31.7466 48.1077 32.5752 50.0731 33.8006C50.7999 34.5251 51.2562 35.4362 51.386 36.4218C51.5157 37.4075 51.3132 38.4247 50.8034 39.3485C50.9789 37.519 50.3763 35.7439 49.1138 34.3717C47.5127 33.0069 45.5738 31.9826 43.4287 31.3684Z" fill="white"/>
<path opacity="0.1" d="M29.7035 44.0574C25.5961 41.9119 26.6947 38.1878 28.7997 35.2666C27.8638 36.0622 27.0147 36.9401 26.2665 37.8857L25.9714 38.2519L25.7372 38.5544C23.2518 42.0606 24.752 45.5284 29.8434 46.8857C33.2383 47.6001 36.8231 47.5608 40.3094 46.7709C43.7956 45.9811 47.086 44.4628 49.9157 42.3382C50.7172 41.6843 51.4169 40.9319 51.9921 40.1052C51.8301 40.3082 50.5228 41.9678 45.2155 43.6857C37.1306 46.3322 32.812 45.7143 29.7035 44.0574Z" fill="#252525"/>
<path d="M39.421 10.3909L40.8513 17.3163L47.0038 12.3542L48.4309 19.2639L42.2784 24.226L44.5311 35.1334L38.3605 40.0995L36.1077 29.192L29.9339 34.1423L28.5068 27.2327L34.6774 22.2666L33.2504 15.357L39.421 10.3909Z" fill="#455A64"/>
<path d="M38.9671 40.1039L31.3196 38.1429L30.493 34.1482L36.7119 29.2051L38.9671 40.1039Z" fill="#263238"/>
<path d="M29.1751 27.3868L21.5615 25.4225L22.993 32.3441L30.6033 34.2926L29.1751 27.3868Z" fill="#37474F"/>
<path d="M34.8384 22.4061L27.4327 20.4431L21.4339 25.4414L28.8252 27.4243L34.8384 22.4061Z" fill="#455A64"/>
<path opacity="0.2" d="M34.8384 22.4061L27.4327 20.4431L21.4339 25.4414L28.8252 27.4243L34.8384 22.4061Z" fill="white"/>
<path d="M33.2803 15.5196L25.6494 13.5593L27.0808 20.481L34.7085 22.4255L33.2803 15.5196Z" fill="#37474F"/>
<path d="M38.9434 10.5391L31.5344 8.56023L25.5211 13.5783L32.9301 15.5572L38.9434 10.5391Z" fill="#455A64"/>
<path opacity="0.2" d="M38.9434 10.5391L31.5344 8.56023L25.5211 13.5783L32.9301 15.5572L38.9434 10.5391Z" fill="white"/>
<path d="M46.3205 12.3612L38.8145 10.3982L40.2396 17.3378L46.3205 12.3612Z" fill="#455A64"/>
<path opacity="0.2" d="M46.3205 12.3612L38.8145 10.3982L40.2396 17.3378L46.3205 12.3612Z" fill="white"/>
<path d="M161.479 430.961C145.137 426.805 120.838 431.859 107.162 442.258C100.352 447.463 97.5166 452.999 98.3856 457.695L99.3919 463.135C100.277 467.919 104.853 471.936 113.038 474.022C129.38 478.177 153.706 473.118 167.355 462.725C174.191 457.514 177.023 451.957 176.112 447.178L175.105 441.739C174.262 437.036 169.665 433.047 161.479 430.961Z" fill="#EBEBEB"/>
<path opacity="0.2" d="M161.479 430.961C145.137 426.805 120.838 431.859 107.162 442.258C100.352 447.463 97.5166 452.999 98.3856 457.695L99.3919 463.135C100.277 467.919 104.853 471.936 113.038 474.022C129.38 478.177 153.706 473.118 167.355 462.725C174.191 457.514 177.023 451.957 176.112 447.178L175.105 441.739C174.262 437.036 169.665 433.047 161.479 430.961Z" fill="#252525"/>
<path opacity="0.2" d="M116.77 437.4C113.519 438.871 110.454 440.631 107.634 442.644C100.574 447.793 97.6254 453.273 98.511 457.928L99.5367 463.318C100.439 468.059 105.161 472.044 113.603 474.012C116.953 474.821 120.444 475.291 124.003 475.413L116.77 437.4Z" fill="#252525"/>
<path d="M107.239 442.252C120.897 431.837 145.155 426.781 161.462 430.95C177.769 435.12 179.943 446.963 166.311 457.373C152.679 467.783 128.395 472.844 112.088 468.675C95.7805 464.505 93.5235 452.793 107.239 442.252Z" fill="#EBEBEB"/>
<path opacity="0.4" d="M107.239 442.252C120.897 431.837 145.155 426.781 161.462 430.95C177.769 435.12 179.943 446.963 166.311 457.373C152.679 467.783 128.395 472.844 112.088 468.675C95.7805 464.505 93.5235 452.793 107.239 442.252Z" fill="#252525"/>
<path d="M131.754 424.118C95.0922 431.752 92.7905 446.037 94.0516 452.882C95.3127 459.727 101.323 464.403 112.438 467.22C121.206 468.992 130.522 468.927 139.633 467.03C148.744 465.133 157.394 461.457 164.886 456.299C174.201 449.205 178.112 442.486 176.851 435.641C175.59 428.796 168.441 416.478 131.754 424.118Z" fill="#EBEBEB"/>
<path opacity="0.1" d="M150.489 448.826L149.815 448.966C147.148 449.841 142.034 450.589 140.218 452.877C137.041 456.7 142.654 458.235 146.039 458.484C151.663 458.593 157.325 456.953 161.995 453.862C166.015 451.329 169.204 447.918 171.181 444.034C171.931 442.4 173.028 437.806 170.366 437.383C169.642 437.285 168.88 437.393 168.193 437.692C167.505 437.991 166.929 438.465 166.55 439.043C165.478 440.146 164.319 441.186 163.081 442.154C162.008 443.098 160.853 443.97 159.627 444.761C156.786 446.47 153.708 447.839 150.489 448.826Z" fill="white"/>
<path opacity="0.1" d="M131.714 448.921C153.684 446.051 167.511 435.617 171.426 426.723C165.641 422.276 154.25 419.472 131.778 424.148C95.095 431.781 92.7954 446.058 94.059 452.898C95.3226 459.738 101.338 464.41 112.461 467.224C121.235 468.994 130.556 468.928 139.673 467.031C148.789 465.134 157.444 461.459 164.939 456.304C166.939 454.799 168.812 453.172 170.542 451.439C163.584 457.585 151.498 463.572 134.629 464.994C117.761 466.416 108.853 451.93 131.714 448.921Z" fill="#252525"/>
<path opacity="0.1" d="M118.206 446.287L113.048 430.363C94.4044 437.993 93.1769 447.843 94.1818 453.129C95.4749 459.932 101.638 464.543 113.046 467.338C113.426 467.442 113.797 467.503 114.172 467.585C101.418 463.823 105.394 445.865 118.206 446.287Z" fill="#252525"/>
<path d="M153.63 402.865C138.239 398.944 115.33 403.706 102.455 413.502C96.0437 418.394 93.3672 423.621 94.197 428.097L95.4439 434.822C96.2778 439.319 100.596 443.093 108.305 445.051C123.718 448.944 146.631 444.205 159.48 434.414C165.917 429.516 168.594 424.289 167.734 419.797L166.487 413.072C165.671 408.525 161.429 404.872 153.63 402.865Z" fill="#EBEBEB"/>
<path opacity="0.2" d="M153.63 402.865C138.239 398.944 115.33 403.706 102.455 413.502C96.0437 418.394 93.3672 423.621 94.197 428.097L95.4439 434.822C96.2778 439.319 100.596 443.093 108.305 445.051C123.718 448.944 146.631 444.205 159.48 434.414C165.917 429.516 168.594 424.289 167.734 419.797L166.487 413.072C165.671 408.525 161.429 404.872 153.63 402.865Z" fill="#252525"/>
<path opacity="0.2" d="M108.906 445.147C111.702 445.808 114.6 446.224 117.555 446.388L110.523 409.448C107.842 410.72 105.305 412.204 102.954 413.876C96.2751 418.714 93.4705 423.867 94.3191 428.325L95.588 434.991C96.4096 439.454 100.907 443.194 108.906 445.147Z" fill="#252525"/>
<path d="M102.425 413.521C115.277 403.706 138.134 398.942 153.483 402.879C168.832 406.817 170.873 417.938 158.046 427.748C145.22 437.558 122.363 442.322 106.988 438.389C91.6134 434.457 89.5986 423.331 102.425 413.521Z" fill="#F5F5F5"/>
<path d="M158.237 409.343C152.613 402.307 137.715 380.803 130.356 342.084L99.4588 348.289C106.817 387.008 100.914 412.689 98.2803 421.384C96.7176 426.984 100.474 432.055 109.063 434.469C122.278 438.091 141.828 434.165 152.745 425.697C160.138 420.073 161.735 413.927 158.237 409.343Z" fill="#EBEBEB"/>
<path opacity="0.1" d="M133.703 367.647C137.57 379.519 142.829 390.988 149.415 401.913C153.63 408.93 158.752 413.313 154.266 419.044C149.779 424.775 136.894 428.693 136.894 428.693C141.447 426.183 145.409 423.028 148.554 419.409C153.24 413.819 148.624 407.863 145.918 402.575C141.481 393.943 135.187 380.399 133.703 367.647Z" fill="white"/>
<path opacity="0.1" d="M137.093 433.726C134.164 433.302 128.338 432.627 128.841 413.143C129.343 393.659 123.757 364.205 119.949 344.675L99.999 348.505C107.363 387.144 101.134 412.748 98.3708 421.415C96.7286 426.997 100.571 432.064 109.409 434.491C118.257 436.529 127.926 436.261 137.093 433.726Z" fill="#252525"/>
<path opacity="0.1" d="M113.308 406.355C114.763 393.148 111.005 367.215 107.306 347.44L100.603 348.664C107.996 387.254 101.377 412.802 98.458 421.449C96.7206 427.018 100.673 432.086 109.819 434.528C112.291 435.139 114.862 435.546 117.491 435.742C105.911 432.001 111.768 420.046 113.308 406.355Z" fill="#252525"/>
<path d="M129.956 323.465C123.342 322.135 116.313 322.185 109.44 323.61C102.568 325.036 96.0443 327.797 90.3988 331.671C85.4215 335.444 83.3592 339.473 84.0051 342.94L85.5855 351.423C86.2314 354.89 89.4815 357.817 95.5241 359.326C102.144 360.656 109.176 360.605 116.053 359.178C122.93 357.752 129.458 354.989 135.108 351.115C140.081 347.32 142.143 343.291 141.471 339.829L139.891 331.346C139.297 327.868 135.943 324.963 129.956 323.465Z" fill="#E0E0E0"/>
<path opacity="0.2" d="M106.716 324.653C100.871 326.082 95.369 328.55 90.6108 331.878C85.5241 335.624 83.4129 339.626 84.0675 343.072L85.6692 351.502C86.3239 354.947 89.638 357.858 95.805 359.361C101.438 360.598 107.448 360.741 113.391 359.782L106.716 324.653Z" fill="#252525"/>
<path d="M90.3861 331.689C96.014 327.804 102.515 325.036 109.362 323.609C116.208 322.182 123.209 322.137 129.795 323.475C141.638 326.507 143.217 335.111 133.318 342.674C127.689 346.565 121.183 349.336 114.331 350.765C107.479 352.193 100.473 352.237 93.8832 350.893C82.0405 347.861 80.4618 339.258 90.3861 331.689Z" fill="#F5F5F5"/>
<path d="M133.97 322.256C135.9 332.461 126.494 342.955 112.95 345.727C99.4064 348.498 86.9057 342.486 84.9757 332.281C83.0457 322.076 90.1277 299.292 103.645 296.526C117.163 293.76 132.061 312.159 133.97 322.256Z" fill="#EBEBEB"/>
<path opacity="0.1" d="M97.4184 334.584C88.7492 324.406 95.9052 306.499 100.065 302.857C102.611 303.146 105.262 302.863 107.754 302.035C110.247 301.207 112.493 299.864 114.269 298.139C111.216 296.533 107.465 295.974 103.723 296.569C90.1627 299.331 83.0547 322.118 84.9829 332.294C86.9112 342.47 99.4792 348.496 113.04 345.734C116.719 345.015 120.237 343.65 123.355 341.731C126.473 339.813 129.115 337.387 131.101 334.619C125.557 340.211 106.084 344.74 97.4184 334.584Z" fill="#252525"/>
<path d="M114.076 286.138C114.475 288.258 114.108 290.486 113.022 292.542C111.936 294.597 110.179 296.386 107.974 297.683C105.769 298.98 103.214 299.727 100.633 299.829C98.0524 299.931 95.5609 299.384 93.4741 298.256C91.3872 297.129 89.7987 295.472 88.9094 293.495C88.0201 291.518 87.8699 289.31 88.4779 287.15C89.0859 284.99 90.4247 282.975 92.325 281.36C94.2254 279.744 96.6019 278.602 99.1541 278.076C102.576 277.371 106.071 277.824 108.87 279.336C111.668 280.848 113.541 283.294 114.076 286.138Z" fill="#EBEBEB"/>
<path opacity="0.2" d="M114.076 286.137C114.471 288.206 114.135 290.381 113.111 292.398C112.086 294.416 110.416 296.19 108.303 297.506C106.19 298.822 103.723 299.625 101.201 299.816C98.6792 300.007 96.2098 299.58 94.0913 298.584C91.9728 297.589 90.2958 296.069 89.2628 294.208C88.2297 292.346 87.8849 290.223 88.2699 288.095C88.655 285.966 89.7533 283.924 91.4325 282.214C93.1116 280.504 95.2996 279.199 97.7322 278.458C96.1379 279.374 94.8137 280.601 93.887 282.023C92.9602 283.444 92.462 285.012 92.4402 286.575C92.4184 288.139 92.8738 289.645 93.7626 290.949C94.6513 292.254 95.9437 293.313 97.5153 294.025C99.0869 294.736 100.885 295.076 102.737 295.013C104.589 294.949 106.432 294.483 108.089 293.66C109.747 292.838 111.163 291.685 112.201 290.315C113.24 288.944 113.866 287.4 114.019 285.832L114.076 286.137Z" fill="#252525"/>
<path opacity="0.2" d="M103.018 279.232C102.086 279.244 101.152 279.438 100.285 279.799C99.6794 280.007 99.1629 280.388 98.8309 280.874C98.499 281.359 98.374 281.915 98.4789 282.44C98.7344 283.815 100.762 283.96 102.111 283.952L104.511 284.065C105.549 284.122 106.527 284.44 107.56 284.475C108.594 284.509 109.11 283.654 109.016 282.858C108.95 282.182 108.665 281.552 108.191 281.035C107.681 280.466 107.015 280.016 106.243 279.717C105.256 279.326 104.147 279.159 103.018 279.232Z" fill="white"/>
<path d="M295.554 285.235C282.124 274.537 257.929 268.923 241.528 272.699C233.339 274.601 228.644 278.475 227.711 283.154L226.6 288.565C225.624 293.325 228.322 298.914 235.065 304.19C248.495 314.888 272.691 320.502 289.091 316.726C297.307 314.83 301.976 310.95 302.909 306.272L304.019 300.86C304.978 296.188 302.254 290.592 295.554 285.235Z" fill="#37474F"/>
<path opacity="0.2" d="M295.554 285.235C282.124 274.537 257.929 268.923 241.528 272.699C233.339 274.601 228.644 278.475 227.711 283.154L226.6 288.565C225.624 293.325 228.322 298.914 235.065 304.19C248.495 314.888 272.691 320.502 289.091 316.726C297.307 314.83 301.976 310.95 302.909 306.272L304.019 300.86C304.978 296.188 302.254 290.592 295.554 285.235Z" fill="#252525"/>
<path opacity="0.2" d="M252.657 271.429C249.099 271.481 245.6 271.868 242.229 272.581C233.726 274.471 228.859 278.307 227.902 282.934L226.764 288.286C225.762 292.992 228.582 298.516 235.603 303.724C238.378 305.798 241.406 307.626 244.627 309.17L252.657 271.429Z" fill="#252525"/>
<path opacity="0.4" d="M241.665 272.713C258.027 268.922 282.173 274.541 295.583 285.258C308.992 295.976 306.599 307.739 290.237 311.529C273.876 315.32 249.725 309.724 236.32 298.984C222.915 288.245 225.304 276.504 241.665 272.713Z" fill="#252525"/>
<path d="M271.336 266.545C234.85 258.067 227.323 270.152 225.927 276.984C224.531 283.817 228.307 290.62 237.475 297.902C244.856 303.228 253.423 307.1 262.484 309.206C271.545 311.311 280.846 311.591 289.635 310.023C300.792 307.442 306.88 302.931 308.272 296.12C309.663 289.31 307.822 275.024 271.336 266.545Z" fill="#37474F"/>
<path opacity="0.1" d="M278.634 297.456L277.963 297.3C275.193 296.974 270.226 295.499 267.688 296.825C263.389 298.974 267.964 302.778 270.976 304.438C276.087 306.908 281.877 307.794 287.296 306.935C291.924 306.306 296.117 304.527 299.384 301.806C300.652 300.618 303.385 296.872 301.099 295.359C300.475 294.96 299.739 294.735 298.999 294.714C298.259 294.694 297.554 294.881 296.99 295.246C295.599 295.815 294.149 296.287 292.652 296.656C291.314 297.06 289.933 297.372 288.519 297.588C285.28 297.95 281.951 297.906 278.634 297.456Z" fill="white"/>
<path opacity="0.1" d="M262.081 289.21C283.271 295.838 299.866 292.129 306.753 285.597C303.13 279.107 293.732 271.732 271.382 266.543C234.871 258.066 227.335 270.142 225.936 276.969C224.537 283.796 228.314 290.595 237.488 297.873C244.872 303.196 253.444 307.066 262.511 309.171C271.579 311.276 280.886 311.557 289.683 309.991C292.073 309.458 294.39 308.754 296.61 307.887C287.941 310.566 274.645 310.986 258.647 305.177C242.649 299.367 239.974 282.301 262.081 289.21Z" fill="#252525"/>
<path opacity="0.1" d="M251.093 280.262L252.46 263.577C232.38 263.004 227.424 271.521 226.31 276.771C224.876 283.526 228.771 290.252 238.223 297.449L239.142 298.104C228.873 289.509 239.514 274.687 251.093 280.262Z" fill="#252525"/>
<path d="M297.389 259.881C286.095 250.891 265.711 246.166 251.888 249.332C245.003 250.922 241.05 254.192 240.228 258.188C240.072 258.949 239.156 263.401 238.999 264.161C238.177 268.157 240.459 272.873 246.119 277.371C257.436 286.388 277.819 291.113 291.621 287.919C298.563 286.32 302.489 283.043 303.285 279.041L304.514 273.069C305.357 269.1 303.05 264.378 297.389 259.881Z" fill="#37474F"/>
<path opacity="0.2" d="M246.621 276.966C248.713 278.513 250.976 279.895 253.372 281.09L260.355 248.306C257.687 248.39 255.064 248.699 252.528 249.229C245.352 250.812 241.243 254.053 240.401 258.006C240.241 258.758 239.302 263.162 239.142 263.914C238.3 267.867 240.699 272.527 246.621 276.966Z" fill="#252525"/>
<path d="M252.043 249.348C265.822 246.166 286.151 250.896 297.422 259.906C308.693 268.917 306.702 278.834 292.918 282.038C279.135 285.242 258.836 280.497 247.54 271.48C236.243 262.463 238.285 252.558 252.043 249.348Z" fill="#455A64"/>
<path d="M302.786 265.18C300.495 256.864 294.083 238.732 298.307 218.699L269.319 212.12C265.063 232.304 251.972 245.85 246.517 252.407C243.135 256.701 244.538 262.578 251.194 268.066C256.894 272.307 263.634 275.38 270.798 277.006C277.962 278.632 285.322 278.759 292.208 277.376C300.492 275.279 304.131 270.546 302.786 265.18Z" fill="#37474F"/>
<path opacity="0.1" d="M296.459 219.898C295.416 231.687 295.77 243.639 297.517 255.6C298.764 263.325 301.522 269.014 295.432 272.376C289.342 275.738 276.521 274.482 276.521 274.482C281.463 273.942 286.128 272.637 290.26 270.641C296.429 267.452 294.595 260.568 294.179 254.922C293.615 245.771 293.075 231.627 296.459 219.898Z" fill="white"/>
<path opacity="0.1" d="M275.463 277.453C273.124 275.997 268.222 273.214 275.895 256.361C283.568 239.509 284.512 234.678 288.343 216.152L269.764 212.084C265.501 232.112 252.123 245.714 246.56 252.255C243.112 256.538 244.572 262.39 251.413 267.847C258.27 272.901 266.668 276.256 275.463 277.453Z" fill="#252525"/>
<path opacity="0.1" d="M264.996 244.188C271.081 233.115 272.448 232.013 276.533 213.347L270.344 212.048C266.043 232.125 252.359 245.636 246.666 252.173C243.139 256.453 244.673 262.29 251.747 267.72C253.648 269.132 255.709 270.398 257.898 271.5C249.083 264.045 258.639 255.719 264.996 244.188Z" fill="#252525"/>
<path d="M301.052 210.689C296.957 207.733 292.197 205.584 287.16 204.417C282.123 203.25 276.951 203.098 272.066 203.974C270.287 204.206 268.661 204.85 267.355 205.839C266.05 206.829 265.113 208.127 264.643 209.601L263.717 214.094C263.565 215.644 263.905 217.241 264.701 218.721C265.497 220.201 266.721 221.51 268.246 222.513C272.346 225.46 277.106 227.603 282.141 228.769C287.177 229.936 292.346 230.093 297.232 229.228C299.012 228.991 300.639 228.342 301.945 227.349C303.251 226.356 304.188 225.055 304.66 223.58L305.586 219.086C305.732 217.539 305.389 215.946 304.593 214.47C303.796 212.994 302.574 211.689 301.052 210.689Z" fill="#37474F"/>
<path opacity="0.2" d="M285.368 203.92C281.005 203.13 276.579 203.146 272.414 203.967C270.596 204.198 268.934 204.837 267.6 205.819C266.266 206.8 265.309 208.089 264.829 209.55L263.885 214.007C263.731 215.544 264.08 217.128 264.895 218.596C265.709 220.063 266.961 221.361 268.52 222.355C271.979 224.88 275.998 226.784 280.284 227.928L285.368 203.92Z" fill="#252525"/>
<path d="M272.182 203.985C277.049 203.104 282.203 203.254 287.224 204.422C292.246 205.59 296.992 207.744 301.076 210.708C308.259 216.44 306.973 222.757 298.213 224.78C293.346 225.661 288.192 225.512 283.171 224.344C278.15 223.175 273.403 221.021 269.319 218.057C262.136 212.325 263.422 206.008 272.182 203.985Z" fill="#455A64"/>
<path d="M288.097 200.588C268.782 196.099 264.846 202.523 264.108 206.135C263.369 209.747 265.356 213.263 270.201 217.215C274.113 220.042 278.655 222.097 283.46 223.214C288.265 224.33 293.197 224.477 297.857 223.642C303.761 222.279 306.983 219.882 307.721 216.27C308.459 212.658 307.412 205.076 288.097 200.588Z" fill="#37474F"/>
<path opacity="0.1" d="M291.962 216.954L291.601 216.87C290.147 216.714 287.526 215.922 286.244 216.65C283.96 217.785 286.385 219.81 287.999 220.642C290.701 221.963 293.773 222.434 296.642 221.969C299.094 221.637 301.318 220.698 303.053 219.262C303.724 218.619 305.152 216.646 303.942 215.817C303.611 215.608 303.22 215.49 302.828 215.48C302.436 215.471 302.063 215.572 301.765 215.767C301.033 216.068 300.268 216.318 299.479 216.513C298.774 216.727 298.045 216.893 297.299 217.01C295.551 217.213 293.754 217.194 291.962 216.954Z" fill="white"/>
<path opacity="0.1" d="M283.297 212.632C294.518 216.126 303.313 214.159 306.971 210.704C304.976 207.234 300.058 203.359 288.223 200.611C268.895 196.124 264.954 202.543 264.214 206.152C263.475 209.761 265.462 213.275 270.31 217.224C274.223 220.05 278.768 222.104 283.577 223.22C288.385 224.336 293.321 224.483 297.984 223.649C299.247 223.364 300.472 222.994 301.649 222.541C295.216 224.226 288.043 223.714 281.533 221.105C272.966 218 271.468 208.93 283.297 212.632Z" fill="#252525"/>
<path opacity="0.1" d="M277.381 207.85L278.117 199.001C267.457 198.677 264.855 203.19 264.262 205.987C263.504 209.559 265.553 213.034 270.548 216.94L271.057 217.301C265.612 212.755 271.235 204.904 277.381 207.85Z" fill="#252525"/>
<path d="M305.16 194.096C301.059 191.149 296.3 189.006 291.264 187.839C286.229 186.673 281.06 186.516 276.174 187.38C274.394 187.618 272.767 188.266 271.461 189.259C270.155 190.252 269.218 191.553 268.746 193.029L267.82 197.523C267.668 199.07 268.008 200.664 268.806 202.141C269.603 203.618 270.828 204.922 272.353 205.92C276.448 208.876 281.209 211.025 286.246 212.192C291.283 213.359 296.455 213.511 301.34 212.635C303.118 212.403 304.745 211.759 306.05 210.769C307.356 209.78 308.293 208.481 308.763 207.008L309.689 202.514C309.822 200.965 309.473 199.373 308.679 197.896C307.884 196.419 306.671 195.109 305.16 194.096Z" fill="#37474F"/>
<path opacity="0.2" d="M289.471 187.349C285.11 186.559 280.687 186.568 276.519 187.375C274.699 187.61 273.036 188.254 271.702 189.239C270.368 190.224 269.41 191.515 268.929 192.979L267.985 197.436C267.831 198.97 268.18 200.552 268.996 202.016C269.812 203.48 271.065 204.774 272.625 205.762C276.062 208.329 280.073 210.277 284.364 211.464L289.471 187.349Z" fill="#252525"/>
<path d="M276.29 187.392C281.158 186.521 286.31 186.676 291.329 187.844C296.348 189.012 301.094 191.16 305.184 194.114C312.362 199.869 311.081 206.164 302.316 208.209C297.448 209.079 292.296 208.924 287.277 207.756C282.258 206.588 277.512 204.44 273.422 201.486C266.244 195.732 267.525 189.436 276.29 187.392Z" fill="#455A64"/>
<path d="M290.928 204.497C302.014 205.842 311.399 199.432 311.889 190.182C312.38 180.931 303.79 172.342 292.703 170.997C281.616 169.652 272.232 176.061 271.741 185.312C271.251 194.563 279.841 203.152 290.928 204.497Z" fill="#455A64"/>
<path opacity="0.2" d="M311.354 192.277C310.699 195.409 308.966 198.225 306.363 200.383C303.76 202.541 300.398 203.95 296.683 204.44C292.968 204.93 289.059 204.48 285.427 203.145C281.795 201.809 278.595 199.644 276.213 196.912C273.831 194.18 272.37 190.997 272.004 187.747C271.639 184.497 272.385 181.319 274.153 178.596C275.921 175.873 278.636 173.721 281.969 172.401C285.302 171.08 289.112 170.647 292.939 171.153C290.187 171.422 287.633 172.295 285.521 173.689C283.408 175.083 281.81 176.951 280.877 179.114C279.945 181.277 279.711 183.663 280.196 186.042C280.682 188.421 281.872 190.714 283.652 192.701C285.432 194.688 287.741 196.303 290.36 197.39C292.979 198.477 295.819 199 298.607 198.909C301.395 198.818 304.038 198.116 306.283 196.87C308.528 195.625 310.3 193.877 311.427 191.795C311.416 191.958 311.391 192.119 311.354 192.277Z" fill="#252525"/>
<path opacity="0.2" d="M300.417 175.903C299.103 175.338 297.69 175.01 296.273 174.944C295.295 174.841 294.342 175.048 293.597 175.526C292.853 176.003 292.368 176.719 292.237 177.534C291.945 179.739 294.538 181.112 296.42 182.116L299.681 183.803C301.128 184.547 302.287 185.634 303.744 186.335C305.2 187.036 306.482 186.218 306.732 185.003C307.003 184.017 306.949 182.96 306.577 181.944C306.165 180.805 305.456 179.738 304.507 178.828C303.419 177.597 302.012 176.592 300.417 175.903Z" fill="white"/>
</svg>
