<svg width="115" height="115" viewBox="0 0 115 115" fill="none" xmlns="http://www.w3.org/2000/svg">
<path fill-rule="evenodd" clip-rule="evenodd" d="M47.9198 6.18933C48.0276 2.74023 50.8548 0 54.3056 0H63.8889C67.3397 0 70.1669 2.74023 70.2747 6.18933L70.3309 7.98611H73.4723C77.0008 7.98611 79.8612 10.8465 79.8612 14.375V18.2499C86.8253 16.674 94.3421 17.7267 100.722 23.0433C113.976 34.0883 112.757 57.2414 97.0268 69.9054C93.2308 72.9615 90.2487 75.4952 88.1952 78.1057C87.7267 78.7014 87.3253 79.2776 86.9875 79.8416L93.4624 80.7174C96.6311 81.1459 98.995 83.8511 98.995 87.0486V99.0278C98.995 102.556 96.1346 105.417 92.6061 105.417H25.5884C22.0599 105.417 19.1995 102.556 19.1995 99.0278V87.0486C19.1995 83.8511 21.5634 81.1459 24.7321 80.7174L31.2071 79.8416C30.8692 79.2776 30.4679 78.7013 29.9993 78.1057C27.9458 75.4951 24.9637 72.9615 21.1677 69.9054C5.43797 57.2414 4.21844 34.0883 17.4725 23.0433C23.8524 17.7267 31.3692 16.674 38.3334 18.2499V14.375C38.3334 10.8465 41.1938 7.98611 44.7223 7.98611H47.8637L47.9198 6.18933Z" fill="#F4F7FA"/>
<path fill-rule="evenodd" clip-rule="evenodd" d="M54.3055 6.38892H63.8888L64.1384 14.375H73.4721V23.9584H64.4378L64.8767 34.8082C65.0518 34.602 65.2322 34.3997 65.418 34.2021C74.1439 24.928 87.0815 19.9928 96.6319 27.9514C106.215 35.9375 106.215 54.3056 93.0201 64.929C85.5455 70.9468 78.8505 76.748 79.1804 85.2329L92.606 87.0486V99.0278H25.5883V87.0486L39.0139 85.2329C39.3438 76.748 32.6487 70.9467 25.1742 64.929C11.9791 54.3056 11.9791 35.9375 21.5624 27.9514C31.1127 19.9928 44.0503 24.928 52.7762 34.2021C52.9621 34.3997 53.1424 34.602 53.3175 34.8082L53.7564 23.9584H44.7221V14.375H54.0559L54.3055 6.38892ZM45.278 43.0821C51.1345 52.675 51.9096 63.8889 51.9096 68.7656C48.9742 68.7709 37.9081 63.9025 32.0492 55.9102C27.8312 50.1564 26.7313 41.6196 30.3471 38.3054C33.9629 34.9912 41.6177 37.0866 45.278 43.0821ZM72.9163 43.0821C67.0598 52.675 66.2846 63.8889 66.2846 68.7656C69.2201 68.7709 80.2862 63.9025 86.1451 55.9102C90.3631 50.1564 91.4629 41.6196 87.8471 38.3054C84.2314 34.9912 76.5766 37.0866 72.9163 43.0821Z" fill="#1D1E4A"/>
</svg>
