<svg width="55" height="70" viewBox="0 0 55 70" fill="none" xmlns="http://www.w3.org/2000/svg">
<path d="M54.6702 64.6569C54.6281 68.2438 52.9119 69.9584 49.3215 69.9847C45.646 70.0062 41.9713 69.9584 38.2911 69.9528C34.6109 69.9472 30.9353 69.9528 27.2607 69.9528V69.995C20.0789 69.995 12.9028 70.0062 5.72105 69.995C1.6974 69.9847 0.0299256 68.27 0.0346043 64.1919C0.0346043 61.2116 0.140342 58.2209 0.00840379 55.2462C-0.107627 52.5659 0.977823 50.7566 3.26756 49.4694C6.42192 47.6975 9.10653 45.3181 11.5759 42.6912C12.4078 41.8053 13.2762 40.9456 11.3888 40.2753C11.1511 40.1909 10.9565 39.9744 10.7721 39.7953C8.64522 37.7122 8.69762 27.3041 11.0407 25.4516C12.3732 24.3912 12.5304 23.5578 11.9886 22.0334C8.59562 12.5084 13.6823 2.83904 23.2333 0.470919C32.4147 -1.80252 41.408 4.38498 43.0128 14.0853C43.4554 16.7497 43.1064 19.3447 42.1285 21.8131C41.6017 23.1537 41.5802 24.0181 42.9445 24.8309C44.7608 25.9119 45.4504 27.6209 45.3241 29.7575C45.2158 31.6849 45.2105 33.6167 45.3082 35.5447C45.4017 37.6381 44.8403 39.4109 42.9688 40.4712C41.6317 41.2306 42.3531 41.7528 42.9473 42.44C45.4429 45.3041 48.3287 47.7144 51.6244 49.5716C53.7934 50.7903 54.7207 52.5041 54.6833 54.9256C54.6393 58.1712 54.7095 61.4131 54.6702 64.6569Z" fill="#36374B"/>
<path d="M35.093 36.408C35.7265 41.8239 39.1279 45.2505 42.592 48.6086C43.7149 49.6999 44.9004 50.897 46.2919 51.5149C49.7232 53.0477 50.3061 55.6183 50.1574 59.0674C49.8897 65.2549 50.0741 65.2689 43.8084 65.2717C31.6439 65.2764 19.4691 65.222 7.30081 65.3205C5.18699 65.3411 4.85949 64.6399 4.64801 62.6561C4.0585 57.0349 5.20945 52.7936 10.6526 49.7336C14.6604 47.4836 17.5611 43.6258 19.2314 39.0939C19.921 37.2255 19.9697 35.9617 17.4357 36.4211C14.6229 36.9311 14.0793 35.6777 14.0035 33.0461C13.9099 29.9036 14.6267 27.6724 17.607 26.3177C18.8478 25.7552 19.6048 25.0989 18.218 23.462C14.2449 18.7623 14.6997 12.1783 18.9769 7.99328C23.0941 3.96203 29.6807 3.5561 34.0703 7.06328C38.9361 10.953 40.1347 17.3561 36.52 22.5133C34.9648 24.7323 35.7808 25.4449 37.5222 26.5802C40.4688 28.5011 41.6394 32.192 40.7196 35.5577C40.4903 36.392 39.9841 36.408 39.3646 36.4108C37.9807 36.4117 36.5967 36.408 35.093 36.408Z" fill="#F2F6F8"/>
</svg>
